<?xml version="1.0" encoding="UTF-8" standalone="no"?><!DOCTYPE svg PUBLIC "-//W3C//DTD SVG 1.1//EN" "http://www.w3.org/Graphics/SVG/1.1/DTD/svg11.dtd"><svg width="100%" height="100%" viewBox="0 0 400 267" version="1.1" xmlns="http://www.w3.org/2000/svg" xmlns:xlink="http://www.w3.org/1999/xlink" xml:space="preserve" style="fill-rule:evenodd;clip-rule:evenodd;stroke-linecap:round;stroke-linejoin:round;stroke-miterlimit:1.5;"><rect x="0" y="0" width="400" height="266.667" style="fill:#f5f5dc;"/><text x="116.87px" y="222.725px" style="font-family:'TimesNewRomanPSMT', 'Times New Roman', serif;font-size:10.667px;fill:#414141;">MA<tspan x="132.876px 139.391px " y="222.725px 222.725px ">TC</tspan>H, CHAIR, MOUSE, CARD</text><text x="105.891px" y="156.763px" style="font-family:'TimesNewRomanPSMT', 'Times New Roman', serif;font-size:40px;fill:#3e3000;">WEBSITE</text><g><path d="M369.86,184.934c0,-0.707 -0.281,-1.385 -0.781,-1.885c-0.5,-0.501 -1.178,-0.782 -1.886,-0.782c-11.437,0 -55.76,0 -55.76,0l0,22.392c0,0 44.323,0 55.76,0c0.708,0 1.386,-0.281 1.886,-0.781c0.5,-0.5 0.781,-1.178 0.781,-1.886c0,-4.308 0,-12.75 0,-17.058Z" style="fill:#3e3000;"/><text x="333.304px" y="196.897px" style="font-family:'TimesNewRomanPSMT', 'Times New Roman', serif;font-size:9.895px;fill:#fff;">Check</text><path d="M322.823,194.706l6.522,-6.521l1.942,1.942l-8.614,8.615l-1.943,-1.943l0.151,-0.15l-2.73,-2.73l1.943,-1.943l2.729,2.73Z" style="fill:#fff;"/></g><text x="127.887px" y="95.179px" style="font-family:'TimesNewRomanPSMT', 'Times New Roman', serif;font-size:12px;">T<tspan x="134.795px 138.129px " y="95.179px 95.179px ">im</tspan>e: 0:42</text><text x="234.87px" y="95.179px" style="font-family:'TimesNewRomanPSMT', 'Times New Roman', serif;font-size:12px;">Score: 7</text><g><rect x="27.928" y="11.494" width="344.143" height="50.63" style="fill:#ccb25b;stroke:#3e3000;stroke-width:1.33px;"/><text x="52.42px" y="49.99px" style="font-family:'TimesNewRomanPSMT', 'Times New Roman', serif;font-size:40px;fill:#3e3000;">A<tspan x="80.328px 108.236px 136.145px 164.053px 189.829px 217.737px 252.098px 275.723px 299.329px 312.198px " y="49.99px 49.99px 49.99px 49.99px 49.99px 49.99px 49.99px 49.99px 49.99px 49.99px ">NAGRAMATIC</tspan></text></g><g><rect x="27.928" y="237.065" width="286.62" height="18.65" style="fill:#ccb25b;stroke:#3e3000;stroke-width:1.33px;"/><text x="32.951px" y="249.905px" style="font-family:'TimesNewRomanPSMT', 'Times New Roman', serif;font-size:10.667px;fill:#3e3000;">Best Score</text></g><g><rect x="316.173" y="237.065" width="55.898" height="18.65" style="fill:#fff;stroke:#b4b4b4;stroke-width:1.33px;"/><text x="337.345px" y="249.463px" style="font-family:'TimesNewRomanPSMT', 'Times New Roman', serif;font-size:12px;">15</text></g><g><path d="M113.921,83.357c0,-0.707 -0.281,-1.386 -0.781,-1.886c-0.5,-0.5 -1.178,-0.781 -1.885,-0.781c-12.422,0 -64.532,0 -76.954,0c-0.707,0 -1.386,0.281 -1.886,0.781c-0.5,0.5 -0.781,1.179 -0.781,1.886c0,4.308 0,12.75 0,17.058c0,0.707 0.281,1.386 0.781,1.886c0.5,0.5 1.179,0.781 1.886,0.781c12.422,0 64.532,0 76.954,0c0.707,0 1.385,-0.281 1.885,-0.781c0.5,-0.5 0.781,-1.179 0.781,-1.886c0,-4.308 0,-12.75 0,-17.058Z" style="fill:#3e3000;"/><text x="66.499px" y="95.799px" style="font-family:'TimesNewRomanPSMT', 'Times New Roman', serif;font-size:9.895px;fill:#fff;">End</text><rect x="50.79" y="87.375" width="10.156" height="9.022" style="fill:#fff;"/></g><g><path d="M369.86,83.357c0,-0.707 -0.281,-1.386 -0.781,-1.886c-0.5,-0.5 -1.178,-0.781 -1.886,-0.781c-12.422,0 -64.531,0 -76.953,0c-0.708,0 -1.386,0.281 -1.886,0.781c-0.5,0.5 -0.781,1.179 -0.781,1.886c0,4.308 0,12.75 0,17.058c0,0.707 0.281,1.386 0.781,1.886c0.5,0.5 1.178,0.781 1.886,0.781c12.422,0 64.531,0 76.953,0c0.708,0 1.386,-0.281 1.886,-0.781c0.5,-0.5 0.781,-1.179 0.781,-1.886c0,-4.308 0,-12.75 0,-17.058Z" style="fill:#3e3000;"/><text x="313.464px" y="94.87px" style="font-family:'TimesNewRomanPSMT', 'Times New Roman', serif;font-size:9.895px;fill:#fff;">New <tspan x="334.442px 342.989px 347.936px " y="94.87px 94.87px 94.87px ">Wor</tspan>d</text><path d="M306.893,94.108l0,-3.139l-10.392,0l0,3.139l10.392,0Z" style="fill:#fff;"/></g><rect x="300.128" y="87.342" width="3.139" height="10.392" style="fill:#fff;"/><g><path d="M311.433,182.267c0,0 -252.057,0 -280.838,0c-0.707,0 -1.385,0.281 -1.886,0.782c-0.5,0.5 -0.781,1.178 -0.781,1.885c0,4.308 0,12.75 0,17.058c0,0.708 0.281,1.386 0.781,1.886c0.501,0.5 1.179,0.781 1.886,0.781c28.781,0 280.838,0 280.838,0l0,-22.392Z" style="fill:#fff;stroke:#b4b4b4;stroke-width:1.33px;"/><text x="36.331px" y="197.221px" style="font-family:'TimesNewRomanPSMT', 'Times New Roman', serif;font-size:10.667px;fill:#414141;">site</text></g></svg>