<?xml version="1.0" encoding="UTF-8" standalone="no"?><!DOCTYPE svg PUBLIC "-//W3C//DTD SVG 1.1//EN" "http://www.w3.org/Graphics/SVG/1.1/DTD/svg11.dtd"><svg width="100%" height="100%" viewBox="0 0 300 200" version="1.1" xmlns="http://www.w3.org/2000/svg" xmlns:xlink="http://www.w3.org/1999/xlink" xml:space="preserve" style="fill-rule:evenodd;clip-rule:evenodd;stroke-linecap:round;stroke-linejoin:round;stroke-miterlimit:1.5;"><rect x="-12.41" y="-11.532" width="330.544" height="218.096" style="fill:#272a2f;"/><g><rect x="20.7" y="25.952" width="23.743" height="24.683" style="fill:#84b2ff;stroke:#84b2ff;stroke-width:1px;"/><rect x="139.414" y="25.952" width="23.743" height="24.683" style="fill:#84b2ff;stroke:#84b2ff;stroke-width:1px;"/><rect x="44.443" y="25.952" width="23.743" height="24.683" style="fill:#84b2ff;stroke:#84b2ff;stroke-width:1px;"/><rect x="20.7" y="50.635" width="23.743" height="24.683" style="fill:#84b2ff;stroke:#84b2ff;stroke-width:1px;"/><rect x="115.671" y="25.952" width="23.743" height="24.683" style="fill:#84b2ff;stroke:#84b2ff;stroke-width:1px;"/><rect x="68.185" y="96.987" width="23.743" height="24.683" style="fill:#84b2ff;stroke:#84b2ff;stroke-width:1px;"/><rect x="91.928" y="50.635" width="23.743" height="24.683" style="fill:#84b2ff;stroke:#84b2ff;stroke-width:1px;"/><rect x="68.185" y="25.952" width="23.743" height="24.683" style="fill:#84b2ff;stroke:#84b2ff;stroke-width:1px;"/><rect x="91.928" y="25.952" width="23.743" height="24.683" style="fill:#84b2ff;stroke:#84b2ff;stroke-width:1px;"/><rect x="20.7" y="75.317" width="23.743" height="24.683" style="fill:#84b2ff;stroke:#84b2ff;stroke-width:1px;"/><rect x="20.7" y="100" width="23.743" height="24.683" style="fill:#84b2ff;stroke:#84b2ff;stroke-width:1px;"/><rect x="20.7" y="124.683" width="23.743" height="24.683" style="fill:#84b2ff;stroke:#84b2ff;stroke-width:1px;"/><rect x="91.928" y="75.317" width="23.743" height="24.683" style="fill:#84b2ff;stroke:#84b2ff;stroke-width:1px;"/><rect x="44.443" y="96.987" width="23.743" height="24.683" style="fill:#84b2ff;stroke:#84b2ff;stroke-width:1px;"/><rect x="20.7" y="149.365" width="23.743" height="24.683" style="fill:#84b2ff;stroke:#84b2ff;stroke-width:1px;"/><rect x="91.928" y="100" width="23.743" height="24.683" style="fill:#84b2ff;stroke:#84b2ff;stroke-width:1px;"/><rect x="91.928" y="124.683" width="23.743" height="24.683" style="fill:#84b2ff;stroke:#84b2ff;stroke-width:1px;"/><rect x="163.157" y="25.952" width="23.743" height="24.683" style="fill:#84b2ff;stroke:#84b2ff;stroke-width:1px;"/><rect x="208.072" y="25.952" width="23.743" height="24.683" style="fill:#84b2ff;stroke:#84b2ff;stroke-width:1px;"/><rect x="231.815" y="50.635" width="23.743" height="24.683" style="fill:#84b2ff;stroke:#84b2ff;stroke-width:1px;"/><rect x="255.557" y="25.952" width="23.743" height="24.683" style="fill:#84b2ff;stroke:#84b2ff;stroke-width:1px;"/><rect x="208.072" y="75.317" width="23.743" height="24.683" style="fill:#84b2ff;stroke:#84b2ff;stroke-width:1px;"/><rect x="255.557" y="75.317" width="23.743" height="24.683" style="fill:#84b2ff;stroke:#84b2ff;stroke-width:1px;"/><rect x="231.815" y="100" width="23.743" height="24.683" style="fill:#84b2ff;stroke:#84b2ff;stroke-width:1px;"/><rect x="231.815" y="124.683" width="23.743" height="24.683" style="fill:#84b2ff;stroke:#84b2ff;stroke-width:1px;"/><rect x="208.072" y="149.365" width="23.743" height="24.683" style="fill:#84b2ff;stroke:#84b2ff;stroke-width:1px;"/><rect x="255.557" y="149.365" width="23.743" height="24.683" style="fill:#84b2ff;stroke:#84b2ff;stroke-width:1px;"/><rect x="91.928" y="149.365" width="23.743" height="24.683" style="fill:#84b2ff;stroke:#84b2ff;stroke-width:1px;"/><rect x="115.671" y="149.365" width="23.743" height="24.683" style="fill:#84b2ff;stroke:#84b2ff;stroke-width:1px;"/><rect x="139.414" y="149.365" width="23.743" height="24.683" style="fill:#84b2ff;stroke:#84b2ff;stroke-width:1px;"/><rect x="163.157" y="149.365" width="23.743" height="24.683" style="fill:#84b2ff;stroke:#84b2ff;stroke-width:1px;"/><rect x="163.157" y="124.683" width="23.743" height="24.683" style="fill:#84b2ff;stroke:#84b2ff;stroke-width:1px;"/><rect x="163.157" y="100" width="23.743" height="24.683" style="fill:#84b2ff;stroke:#84b2ff;stroke-width:1px;"/><rect x="163.157" y="75.317" width="23.743" height="24.683" style="fill:#84b2ff;stroke:#84b2ff;stroke-width:1px;"/><rect x="139.414" y="75.317" width="23.743" height="24.683" style="fill:#84b2ff;stroke:#84b2ff;stroke-width:1px;"/></g></svg>