<?xml version="1.0" encoding="UTF-8" standalone="no"?><!DOCTYPE svg PUBLIC "-//W3C//DTD SVG 1.1//EN" "http://www.w3.org/Graphics/SVG/1.1/DTD/svg11.dtd"><svg width="100%" height="100%" viewBox="0 0 300 200" version="1.1" xmlns="http://www.w3.org/2000/svg" xmlns:xlink="http://www.w3.org/1999/xlink" xml:space="preserve" style="fill-rule:evenodd;clip-rule:evenodd;stroke-linecap:round;stroke-linejoin:round;stroke-miterlimit:1.5;"><rect x="0" y="0" width="300" height="200" style="fill:url(#_Linear1);stroke:#9b9b9b;stroke-width:0.5px;"/><rect x="0" y="20.625" width="85.376" height="179.375" style="fill:#d8d8d8;"/><rect x="0" y="0" width="300" height="20.625" style="fill:#ff8c00;stroke:#000;stroke-width:1px;"/><g><g><rect x="93.229" y="39.085" width="50.182" height="13.641" style="fill:#d8d8d8;stroke:#9b9b9b;stroke-width:0.5px;"/><rect x="143.411" y="39.085" width="50.182" height="13.641" style="fill:#d8d8d8;stroke:#9b9b9b;stroke-width:0.5px;"/><rect x="93.229" y="52.726" width="50.182" height="13.641" style="fill:#d8d8d8;stroke:#9b9b9b;stroke-width:0.5px;"/><rect x="93.229" y="66.367" width="50.182" height="13.641" style="fill:#d8d8d8;stroke:#9b9b9b;stroke-width:0.5px;"/><rect x="93.229" y="80.008" width="50.182" height="13.641" style="fill:#d8d8d8;stroke:#9b9b9b;stroke-width:0.5px;"/><rect x="143.411" y="52.726" width="50.182" height="13.641" style="fill:#d8d8d8;stroke:#9b9b9b;stroke-width:0.5px;"/><rect x="143.411" y="66.367" width="50.182" height="13.641" style="fill:#d8d8d8;stroke:#9b9b9b;stroke-width:0.5px;"/><rect x="143.411" y="80.008" width="50.182" height="13.641" style="fill:#d8d8d8;stroke:#9b9b9b;stroke-width:0.5px;"/><rect x="193.593" y="39.085" width="50.182" height="13.641" style="fill:#d8d8d8;stroke:#9b9b9b;stroke-width:0.5px;"/><rect x="193.593" y="52.726" width="50.182" height="13.641" style="fill:#d8d8d8;stroke:#9b9b9b;stroke-width:0.5px;"/><rect x="193.593" y="66.367" width="50.182" height="13.641" style="fill:#d8d8d8;stroke:#9b9b9b;stroke-width:0.5px;"/><rect x="193.593" y="80.008" width="50.182" height="13.641" style="fill:#d8d8d8;stroke:#9b9b9b;stroke-width:0.5px;"/><rect x="243.775" y="39.085" width="50.182" height="13.641" style="fill:#d8d8d8;stroke:#9b9b9b;stroke-width:0.5px;"/><rect x="243.775" y="52.726" width="50.182" height="13.641" style="fill:#d8d8d8;stroke:#9b9b9b;stroke-width:0.5px;"/><rect x="243.775" y="66.367" width="50.182" height="13.641" style="fill:#d8d8d8;stroke:#9b9b9b;stroke-width:0.5px;"/><rect x="243.775" y="80.008" width="50.182" height="13.641" style="fill:#d8d8d8;stroke:#9b9b9b;stroke-width:0.5px;"/></g></g><g><g><rect x="93.229" y="39.085" width="50.182" height="13.641" style="fill:#d8d8d8;stroke:#9b9b9b;stroke-width:0.5px;"/><rect x="143.411" y="39.085" width="50.182" height="13.641" style="fill:#d8d8d8;stroke:#9b9b9b;stroke-width:0.5px;"/><rect x="93.229" y="52.726" width="50.182" height="13.641" style="fill:#d8d8d8;stroke:#9b9b9b;stroke-width:0.5px;"/><rect x="93.229" y="66.367" width="50.182" height="13.641" style="fill:#d8d8d8;stroke:#9b9b9b;stroke-width:0.5px;"/><rect x="93.229" y="80.008" width="50.182" height="13.641" style="fill:#d8d8d8;stroke:#9b9b9b;stroke-width:0.5px;"/><rect x="143.411" y="52.726" width="50.182" height="13.641" style="fill:#d8d8d8;stroke:#9b9b9b;stroke-width:0.5px;"/><rect x="143.411" y="66.367" width="50.182" height="13.641" style="fill:#d8d8d8;stroke:#9b9b9b;stroke-width:0.5px;"/><rect x="143.411" y="80.008" width="50.182" height="13.641" style="fill:#d8d8d8;stroke:#9b9b9b;stroke-width:0.5px;"/><rect x="193.593" y="39.085" width="50.182" height="13.641" style="fill:#d8d8d8;stroke:#9b9b9b;stroke-width:0.5px;"/><rect x="193.593" y="52.726" width="50.182" height="13.641" style="fill:#d8d8d8;stroke:#9b9b9b;stroke-width:0.5px;"/><rect x="193.593" y="66.367" width="50.182" height="13.641" style="fill:#d8d8d8;stroke:#9b9b9b;stroke-width:0.5px;"/><rect x="193.593" y="80.008" width="50.182" height="13.641" style="fill:#d8d8d8;stroke:#9b9b9b;stroke-width:0.5px;"/><rect x="243.775" y="39.085" width="50.182" height="13.641" style="fill:#d8d8d8;stroke:#9b9b9b;stroke-width:0.5px;"/><rect x="243.775" y="52.726" width="50.182" height="13.641" style="fill:#d8d8d8;stroke:#9b9b9b;stroke-width:0.5px;"/><rect x="243.775" y="66.367" width="50.182" height="13.641" style="fill:#d8d8d8;stroke:#9b9b9b;stroke-width:0.5px;"/><rect x="243.775" y="80.008" width="50.182" height="13.641" style="fill:#d8d8d8;stroke:#9b9b9b;stroke-width:0.5px;"/></g></g><rect x="93.229" y="25.687" width="200.727" height="13.398" style="fill:#ff8c00;stroke:#000;stroke-width:1px;"/><rect x="2.513" y="32.849" width="29.169" height="11.055" style="fill:#fff;stroke:#9b9b9b;stroke-width:1px;"/><rect x="95.931" y="41.671" width="44.879" height="9.072" style="fill:#fff;stroke:#9b9b9b;stroke-width:1px;"/><rect x="95.931" y="55.255" width="44.879" height="9.072" style="fill:#fff;stroke:#9b9b9b;stroke-width:1px;"/><rect x="95.931" y="68.838" width="44.879" height="9.072" style="fill:#fff;stroke:#9b9b9b;stroke-width:1px;"/><rect x="95.931" y="82.422" width="44.879" height="9.072" style="fill:#fff;stroke:#9b9b9b;stroke-width:1px;"/><rect x="95.931" y="82.422" width="44.879" height="9.072" style="fill:#fff;stroke:#9b9b9b;stroke-width:1px;"/><rect x="196.213" y="41.671" width="44.879" height="9.072" style="fill:#fff;stroke:#9b9b9b;stroke-width:1px;"/><rect x="196.213" y="55.255" width="44.879" height="9.072" style="fill:#fff;stroke:#9b9b9b;stroke-width:1px;"/><rect x="196.213" y="68.838" width="44.879" height="9.072" style="fill:#fff;stroke:#9b9b9b;stroke-width:1px;"/><rect x="196.213" y="82.422" width="44.879" height="9.072" style="fill:#fff;stroke:#9b9b9b;stroke-width:1px;"/><rect x="196.213" y="82.422" width="44.879" height="9.072" style="fill:#fff;stroke:#9b9b9b;stroke-width:1px;"/><rect x="146.072" y="41.671" width="14.96" height="9.072" style="fill:#fff;stroke:#9b9b9b;stroke-width:1px;"/><rect x="146.072" y="55.255" width="14.96" height="9.072" style="fill:#fff;stroke:#9b9b9b;stroke-width:1px;"/><rect x="146.072" y="68.838" width="14.96" height="9.072" style="fill:#fff;stroke:#9b9b9b;stroke-width:1px;"/><rect x="146.072" y="82.422" width="14.96" height="9.072" style="fill:#fff;stroke:#9b9b9b;stroke-width:1px;"/><rect x="146.072" y="82.422" width="14.96" height="9.072" style="fill:#fff;stroke:#9b9b9b;stroke-width:1px;"/><rect x="161.032" y="41.671" width="14.96" height="9.072" style="fill:#fff;stroke:#9b9b9b;stroke-width:1px;"/><rect x="161.032" y="55.255" width="14.96" height="9.072" style="fill:#fff;stroke:#9b9b9b;stroke-width:1px;"/><rect x="161.032" y="68.838" width="14.96" height="9.072" style="fill:#fff;stroke:#9b9b9b;stroke-width:1px;"/><rect x="161.032" y="82.422" width="14.96" height="9.072" style="fill:#fff;stroke:#9b9b9b;stroke-width:1px;"/><rect x="161.032" y="82.422" width="14.96" height="9.072" style="fill:#fff;stroke:#9b9b9b;stroke-width:1px;"/><rect x="175.991" y="41.671" width="14.96" height="9.072" style="fill:#fff;stroke:#9b9b9b;stroke-width:1px;"/><rect x="175.991" y="55.255" width="14.96" height="9.072" style="fill:#fff;stroke:#9b9b9b;stroke-width:1px;"/><rect x="175.991" y="68.838" width="14.96" height="9.072" style="fill:#fff;stroke:#9b9b9b;stroke-width:1px;"/><rect x="175.991" y="82.422" width="14.96" height="9.072" style="fill:#fff;stroke:#9b9b9b;stroke-width:1px;"/><rect x="175.991" y="82.422" width="14.96" height="9.072" style="fill:#fff;stroke:#9b9b9b;stroke-width:1px;"/><rect x="2.513" y="57.191" width="78.929" height="11.055" style="fill:#fff;stroke:#9b9b9b;stroke-width:1px;"/><rect x="40.261" y="32.849" width="13.727" height="11.055" style="fill:#fff;stroke:#9b9b9b;stroke-width:1px;"/><rect x="53.988" y="32.849" width="13.727" height="11.055" style="fill:#fff;stroke:#9b9b9b;stroke-width:1px;"/><rect x="67.715" y="32.849" width="13.727" height="11.055" style="fill:#fff;stroke:#9b9b9b;stroke-width:1px;"/><rect x="0" y="174.51" width="85.376" height="25.49" style="fill:#7c7c7c;"/><rect x="0" y="123.53" width="85.376" height="25.49" style="fill:#7c7c7c;"/><rect x="0" y="72.549" width="85.376" height="25.49" style="fill:#7c7c7c;"/><text x="132.824px" y="16.37px" style="font-family:'Impact', sans-serif;font-stretch:condensed;font-size:15.325px;">E<tspan x="141.046px 150.592px 158.814px 169.471px 180.427px 186.127px 196.359px 204.581px 208.069px 215.296px 226.108px 237.016px 247.924px 256.146px " y="16.37px 16.37px 16.37px 16.37px 16.37px 16.37px 16.37px 16.37px 16.37px 16.37px 16.37px 16.37px 16.37px 16.37px ">XERCISE LOGGER</tspan></text><path d="M5.045,8.849l4.393,0l0,-4.393l2.928,0l0,4.393l4.393,0l0,2.928l-4.393,0l0,4.392l-2.928,0l0,-4.392l-4.393,0l0,-2.928Z"/><path d="M266.552,42.342l2.03,2.03l2.03,-2.03l1.353,1.354l-2.03,2.03l2.03,2.029l-1.353,1.354l-2.03,-2.03l-2.03,2.03l-1.353,-1.354l2.03,-2.029l-2.03,-2.03l1.353,-1.354Z"/><path d="M266.552,42.342l2.03,2.03l2.03,-2.03l1.353,1.354l-2.03,2.03l2.03,2.029l-1.353,1.354l-2.03,-2.03l-2.03,2.03l-1.353,-1.354l2.03,-2.029l-2.03,-2.03l1.353,-1.354Z"/><path d="M266.552,56.735l2.03,2.029l2.03,-2.029l1.353,1.353l-2.03,2.03l2.03,2.03l-1.353,1.353l-2.03,-2.03l-2.03,2.03l-1.353,-1.353l2.03,-2.03l-2.03,-2.03l1.353,-1.353Z"/><path d="M266.552,56.735l2.03,2.029l2.03,-2.029l1.353,1.353l-2.03,2.03l2.03,2.03l-1.353,1.353l-2.03,-2.03l-2.03,2.03l-1.353,-1.353l2.03,-2.03l-2.03,-2.03l1.353,-1.353Z"/><path d="M266.552,69.754l2.03,2.03l2.03,-2.03l1.353,1.353l-2.03,2.03l2.03,2.03l-1.353,1.353l-2.03,-2.03l-2.03,2.03l-1.353,-1.353l2.03,-2.03l-2.03,-2.03l1.353,-1.353Z"/><path d="M266.552,69.754l2.03,2.03l2.03,-2.03l1.353,1.353l-2.03,2.03l2.03,2.03l-1.353,1.353l-2.03,-2.03l-2.03,2.03l-1.353,-1.353l2.03,-2.03l-2.03,-2.03l1.353,-1.353Z"/><path d="M266.552,84.146l2.03,2.03l2.03,-2.03l1.353,1.353l-2.03,2.03l2.03,2.03l-1.353,1.353l-2.03,-2.029l-2.03,2.029l-1.353,-1.353l2.03,-2.03l-2.03,-2.03l1.353,-1.353Z"/><path d="M266.552,84.146l2.03,2.03l2.03,-2.03l1.353,1.353l-2.03,2.03l2.03,2.03l-1.353,1.353l-2.03,-2.029l-2.03,2.029l-1.353,-1.353l2.03,-2.03l-2.03,-2.03l1.353,-1.353Z"/><circle cx="34.812" cy="10.74" r="6.787"/><path d="M33.812,10.313l0,-3.476l1.999,0l0,3.476l3.052,0l-4.051,5.738l-4.051,-5.738l3.051,0Z" style="fill:#ff8c00;"/><path d="M78.571,7.931l0,-3.475l1.999,0l0,3.475l3.052,0l-4.051,5.739l-4.051,-5.739l3.051,0Z"/><rect x="74.309" y="13.788" width="10.524" height="2.381"/><path d="M64.254,5.486l-10.524,0l2.631,10.565l5.262,0l2.631,-10.565Z"/><text x="96.512px" y="34.884px" style="font-family:'CourierNewPS-BoldMT', 'Courier New', monospace;font-weight:700;font-size:8px;">Date</text><text x="2.141px" y="29.685px" style="font-family:'CourierNewPS-BoldMT', 'Courier New', monospace;font-weight:700;font-size:8px;">Date</text><text x="40.747px" y="29.685px" style="font-family:'CourierNewPS-BoldMT', 'Courier New', monospace;font-weight:700;font-size:8px;">Time</text><text x="2.192px" y="55.052px" style="font-family:'CourierNewPS-BoldMT', 'Courier New', monospace;font-weight:700;font-size:8px;">Comments</text><text x="6.569px" y="87.761px" style="font-family:'CourierNewPS-BoldMT', 'Courier New', monospace;font-weight:700;font-size:8px;">Exercise Period</text><text x="24.238px" y="112.781px" style="font-family:'CourierNewPS-BoldMT', 'Courier New', monospace;font-weight:700;font-size:8px;">Minimum</text><text x="24.238px" y="138.743px" style="font-family:'CourierNewPS-BoldMT', 'Courier New', monospace;font-weight:700;font-size:8px;">Maximum</text><text x="24.269px" y="164.377px" style="font-family:'CourierNewPS-BoldMT', 'Courier New', monospace;font-weight:700;font-size:8px;">Average</text><text x="28.878px" y="189.722px" style="font-family:'CourierNewPS-BoldMT', 'Courier New', monospace;font-weight:700;font-size:8px;">Total</text><text x="143.793px" y="34.884px" style="font-family:'CourierNewPS-BoldMT', 'Courier New', monospace;font-weight:700;font-size:8px;">Time</text><text x="195.269px" y="34.884px" style="font-family:'CourierNewPS-BoldMT', 'Courier New', monospace;font-weight:700;font-size:8px;">Comments</text><text x="244.837px" y="34.884px" style="font-family:'CourierNewPS-BoldMT', 'Courier New', monospace;font-weight:700;font-size:8px;">Remove</text><path d="M282.013,1.509l-9.854,9.855l3.25,3.25l9.854,-9.855l-3.25,-3.25Z"/><path d="M282.062,2.3l-8.731,8.731l0.75,0.749l8.73,-8.73l-0.749,-0.75Z" style="fill:#ff8c00;"/><path d="M270.168,16.625l1.656,-4.845l3.189,3.189l-4.845,1.656Z"/><text x="100.395px" y="47.498px" style="font-family:'CourierNewPS-BoldMT', 'Courier New', monospace;font-weight:700;font-size:6px;">01/01/2017</text><text x="100.395px" y="61.489px" style="font-family:'CourierNewPS-BoldMT', 'Courier New', monospace;font-weight:700;font-size:6px;">02/01/2017</text><text x="100.395px" y="74.992px" style="font-family:'CourierNewPS-BoldMT', 'Courier New', monospace;font-weight:700;font-size:6px;">03/01/2017</text><text x="100.395px" y="88.658px" style="font-family:'CourierNewPS-BoldMT', 'Courier New', monospace;font-weight:700;font-size:6px;">04/01/2017</text><text x="150.472px" y="48.045px" style="font-family:'CourierNewPS-BoldMT', 'Courier New', monospace;font-weight:700;font-size:6px;">00  16  13</text><text x="150.472px" y="61.581px" style="font-family:'CourierNewPS-BoldMT', 'Courier New', monospace;font-weight:700;font-size:6px;">00  17  10</text><text x="150.472px" y="75.116px" style="font-family:'CourierNewPS-BoldMT', 'Courier New', monospace;font-weight:700;font-size:6px;">00  16  23</text><text x="150.472px" y="89.042px" style="font-family:'CourierNewPS-BoldMT', 'Courier New', monospace;font-weight:700;font-size:6px;">00  15  38</text><text x="198.511px" y="61.641px" style="font-family:'CourierNewPS-BoldMT', 'Courier New', monospace;font-weight:700;font-size:6px;">S<tspan x="201.402px 204.294px 207.186px 210.078px 212.969px 215.861px 218.753px 221.645px 224.536px 227.428px 230.32px 233.212px 236.103px " y="61.641px 61.641px 61.641px 61.641px 61.641px 61.641px 61.641px 61.641px 61.641px 61.641px 61.641px 61.641px 61.641px ">low and tired</tspan></text><text x="198.511px" y="88.647px" style="font-family:'CourierNewPS-BoldMT', 'Courier New', monospace;font-weight:700;font-size:6px;">F<tspan x="201.402px 204.294px 207.186px 210.078px 212.969px 215.861px 218.753px " y="88.647px 88.647px 88.647px 88.647px 88.647px 88.647px 88.647px ">ast run</tspan></text><defs><linearGradient id="_Linear1" x1="0" y1="0" x2="1" y2="0" gradientUnits="userSpaceOnUse" gradientTransform="matrix(-1.71026e-14,106.352,-106.352,-1.71026e-14,161.032,93.6485)"><stop offset="0" style="stop-color:#fff;stop-opacity:1"/><stop offset="1" style="stop-color:#ff8c00;stop-opacity:1"/></linearGradient></defs></svg>