<?xml version="1.0" encoding="UTF-8" standalone="no"?><!DOCTYPE svg PUBLIC "-//W3C//DTD SVG 1.1//EN" "http://www.w3.org/Graphics/SVG/1.1/DTD/svg11.dtd"><svg width="100%" height="100%" viewBox="0 0 300 200" version="1.1" xmlns="http://www.w3.org/2000/svg" xmlns:xlink="http://www.w3.org/1999/xlink" xml:space="preserve" style="fill-rule:evenodd;clip-rule:evenodd;stroke-linecap:round;stroke-linejoin:round;stroke-miterlimit:1.5;"><rect x="0" y="0" width="300" height="200" style="fill:url(#_Linear1);"/><path d="M280,40c0,-1.326 -0.527,-2.598 -1.464,-3.536c-0.938,-0.937 -2.21,-1.464 -3.536,-1.464c-32.826,0 -217.174,0 -250,0c-1.326,0 -2.598,0.527 -3.536,1.464c-0.937,0.938 -1.464,2.21 -1.464,3.536c0,18.742 0,83.761 0,83.761l260,0c0,0 0,-65.019 0,-83.761Z" style="fill:#b5b5b5;stroke:#fff;stroke-width:0.99px;"/><path d="M85,123.761l-65,0c0,0 0,3.239 0,6.239c0,2.761 2.239,5 5,5c15.228,0 60,0 60,0l0,-11.239Z" style="fill:#323232;stroke:#fff;stroke-width:0.99px;"/><path d="M280,40c0,-2.761 -2.239,-5 -5,-5c-32.826,0 -217.174,0 -250,0c-2.761,0 -5,2.239 -5,5c0,3 0,6.239 0,6.239l260,0c0,0 0,-3.239 0,-6.239Z" style="fill:#323232;stroke:#fff;stroke-width:0.99px;"/><rect x="85" y="123.761" width="65" height="11.239" style="fill:#323232;stroke:#fff;stroke-width:0.99px;"/><rect x="150" y="123.761" width="65" height="11.239" style="fill:#323232;stroke:#fff;stroke-width:0.99px;"/><path d="M280,123.761l-65,0l0,11.239c0,0 44.772,0 60,0c2.761,0 5,-2.239 5,-5c0,-3 0,-6.239 0,-6.239Z" style="fill:#323232;stroke:#fff;stroke-width:0.99px;"/><path d="M80,150c0,-2.761 -2.239,-5 -5,-5c-11.3,0 -38.7,0 -50,0c-2.761,0 -5,2.239 -5,5c0,8.658 0,26.342 0,35c0,2.761 2.239,5 5,5c11.3,0 38.7,0 50,0c2.761,0 5,-2.239 5,-5c0,-8.658 0,-26.342 0,-35Z" style="fill:#b5b5b5;stroke:#fff;stroke-width:0.99px;"/><path d="M146.667,150c0,-2.761 -2.239,-5 -5,-5c-11.3,0 -38.7,0 -50,0c-2.762,0 -5,2.239 -5,5c0,8.658 0,26.342 0,35c0,2.761 2.238,5 5,5c11.3,0 38.7,0 50,0c2.761,0 5,-2.239 5,-5c0,-8.658 0,-26.342 0,-35Z" style="fill:#b5b5b5;stroke:#fff;stroke-width:0.99px;"/><path d="M56.083,129.38l-7.166,3.535l0,-7.069l7.166,3.534Z" style="fill:#fff;"/><rect x="114.524" y="126.404" width="5.952" height="5.952" style="fill:#fff;"/><path d="M184.869,126.404l-5.952,0l1.488,5.952l2.976,0l1.488,-5.952Z" style="fill:#fff;"/><path d="M247.5,132.356l-2.831,-2.976l2.831,-2.976" style="fill:none;stroke:#fff;stroke-width:0.73px;"/><ellipse cx="181.893" cy="126.365" rx="2.976" ry="1.039" style="fill:#fff;"/><path d="M213.333,150c0,-2.761 -2.238,-5 -5,-5c-11.3,0 -38.7,0 -50,0c-2.761,0 -5,2.239 -5,5c0,8.658 0,26.342 0,35c0,2.761 2.239,5 5,5c11.3,0 38.7,0 50,0c2.762,0 5,-2.239 5,-5c0,-8.658 0,-26.342 0,-35Z" style="fill:#b5b5b5;stroke:#fff;stroke-width:0.99px;"/><path d="M280,150c0,-2.761 -2.239,-5 -5,-5c-11.3,0 -38.7,0 -50,0c-2.761,0 -5,2.239 -5,5c0,8.658 0,26.342 0,35c0,2.761 2.239,5 5,5c11.3,0 38.7,0 50,0c2.761,0 5,-2.239 5,-5c0,-8.658 0,-26.342 0,-35Z" style="fill:#b5b5b5;stroke:#fff;stroke-width:0.99px;"/><path d="M80,150c0,-2.761 -2.239,-5 -5,-5c-11.3,0 -38.7,0 -50,0c-2.761,0 -5,2.239 -5,5c0,3.534 0,7.644 0,7.644l60,0c0,0 0,-4.11 0,-7.644Z" style="fill:#323232;stroke:#fff;stroke-width:0.99px;"/><path d="M146.667,150c0,-2.761 -2.239,-5 -5,-5c-11.3,0 -38.7,0 -50,0c-2.762,0 -5,2.239 -5,5c0,3.534 0,7.644 0,7.644l60,0c0,0 0,-4.11 0,-7.644Z" style="fill:#323232;stroke:#fff;stroke-width:0.99px;"/><path d="M213.333,150c0,-2.761 -2.238,-5 -5,-5c-11.3,0 -38.7,0 -50,0c-2.761,0 -5,2.239 -5,5c0,3.534 0,7.644 0,7.644l60,0c0,0 0,-4.11 0,-7.644Z" style="fill:#323232;stroke:#fff;stroke-width:0.99px;"/><path d="M280,150c0,-2.761 -2.239,-5 -5,-5c-11.3,0 -38.7,0 -50,0c-2.761,0 -5,2.239 -5,5c0,3.534 0,7.644 0,7.644l60,0c0,0 0,-4.11 0,-7.644Z" style="fill:#323232;stroke:#fff;stroke-width:0.99px;"/><g><path d="M20.753,12.586c0,-0.276 0.224,-0.5 0.5,-0.5c1.177,0 4.114,0 5.292,0c0.276,0 0.5,0.224 0.5,0.5c0,0.443 0,1.088 0,1.531c0,0.133 -0.053,0.26 -0.147,0.354c-0.093,0.094 -0.221,0.146 -0.353,0.146c-0.44,0 -1.078,0 -1.519,0c-0.132,0 -0.259,0.053 -0.353,0.147c-0.094,0.093 -0.147,0.221 -0.147,0.353c0,0.41 0,0.988 0,1.399c0,0.276 0.224,0.5 0.5,0.5c0.4,0 0.958,0 1.358,0c0.276,0 0.5,0.223 0.5,0.5c0,0.412 0,0.994 0,1.406c0,0.276 -0.224,0.5 -0.5,0.5c-0.4,0 -0.958,0 -1.358,0c-0.276,0 -0.5,0.224 -0.5,0.5c0,0.504 0,1.277 0,1.781c0,0.133 0.053,0.26 0.147,0.354c0.094,0.093 0.221,0.146 0.353,0.146c0.501,0 1.269,0 1.77,0c0.132,0 0.26,0.053 0.353,0.147c0.094,0.093 0.147,0.221 0.147,0.353c0,0.444 0,1.088 0,1.531c0,0.133 -0.053,0.26 -0.147,0.354c-0.093,0.094 -0.221,0.146 -0.353,0.146c-1.218,0 -4.326,0 -5.543,0c-0.276,0 -0.5,-0.223 -0.5,-0.5c0,-2.027 0,-9.621 0,-11.648Z" style="fill:#02d0f5;fill-rule:nonzero;"/><path d="M35.398,12.086c0.153,0 0.297,0.07 0.392,0.19c0.095,0.12 0.13,0.277 0.094,0.425c-0.306,1.29 -0.998,4.21 -1.15,4.852c-0.02,0.083 -0.018,0.17 0.005,0.252c0.214,0.755 1.339,4.726 1.783,6.293c0.043,0.151 0.012,0.313 -0.082,0.438c-0.095,0.125 -0.242,0.198 -0.399,0.198c-0.732,0 -1.886,0 -2.47,0c-0.218,0.001 -0.411,-0.14 -0.477,-0.348c-0.168,-0.536 -0.33,-1.119 -0.487,-1.748c-0.056,-0.22 -0.257,-0.371 -0.483,-0.364c-0.227,0.007 -0.418,0.171 -0.46,0.393c-0.001,0.001 -0.002,0.002 -0.002,0.002c0,0.002 0,0.004 -0.001,0.005c-0.009,0.055 -0.182,1.06 -0.283,1.645c-0.041,0.24 -0.249,0.415 -0.493,0.415c-0.649,0 -1.899,0 -2.646,0c-0.15,0 -0.291,-0.066 -0.386,-0.182c-0.095,-0.115 -0.134,-0.266 -0.105,-0.413c0.301,-1.549 1.095,-5.636 1.234,-6.352c0.014,-0.071 0.012,-0.144 -0.005,-0.214c-0.147,-0.599 -0.873,-3.563 -1.193,-4.868c-0.037,-0.149 -0.003,-0.307 0.092,-0.428c0.095,-0.12 0.24,-0.191 0.393,-0.191c0.75,0 1.971,0 2.603,0c0.237,0 0.441,0.166 0.49,0.398c0.073,0.339 0.177,0.787 0.311,1.344c0,0 0.001,0.001 0.001,0.002c0.046,0.181 0.209,0.307 0.396,0.305c0.187,-0.001 0.348,-0.131 0.391,-0.313c0.118,-0.507 0.237,-1.015 0.315,-1.35c0.053,-0.226 0.255,-0.386 0.487,-0.386c0.536,0 1.498,0 2.135,0Z" style="fill:#02d0f5;fill-rule:nonzero;"/><path d="M37.236,12.586c0,-0.276 0.224,-0.5 0.5,-0.5c1.177,0 4.114,0 5.292,0c0.276,0 0.5,0.224 0.5,0.5c0,0.443 0,1.088 0,1.531c0,0.133 -0.053,0.26 -0.147,0.354c-0.093,0.094 -0.221,0.146 -0.353,0.146c-0.441,0 -1.079,0 -1.519,0c-0.132,0 -0.26,0.053 -0.353,0.147c-0.094,0.093 -0.147,0.221 -0.147,0.353c0,0.41 0,0.988 0,1.399c0,0.276 0.224,0.5 0.5,0.5c0.4,0 0.958,0 1.357,0c0.277,0 0.5,0.223 0.5,0.5c0,0.412 0,0.994 0,1.406c0,0.276 -0.223,0.5 -0.5,0.5c-0.399,0 -0.957,0 -1.357,0c-0.276,0 -0.5,0.224 -0.5,0.5c0,0.504 0,1.277 0,1.781c0,0.133 0.053,0.26 0.147,0.354c0.093,0.093 0.221,0.146 0.353,0.146c0.501,0 1.269,0 1.77,0c0.132,0 0.259,0.053 0.353,0.147c0.094,0.093 0.147,0.221 0.147,0.353c0,0.444 0,1.088 0,1.531c0,0.133 -0.053,0.26 -0.147,0.354c-0.093,0.094 -0.221,0.146 -0.353,0.146c-1.218,0 -4.326,0 -5.543,0c-0.276,0 -0.5,-0.223 -0.5,-0.5c0,-2.027 0,-9.621 0,-11.648Z" style="fill:#02d0f5;fill-rule:nonzero;"/><path d="M44.863,12.586c0,-0.276 0.224,-0.5 0.5,-0.5l2.171,0c1.781,0 2.986,0.06 3.617,0.18c0.63,0.119 1.144,0.425 1.541,0.918c0.398,0.492 0.596,1.277 0.596,2.355c0,0.984 -0.14,1.646 -0.421,1.984c-0.089,0.108 -0.207,0.203 -0.351,0.283c-0.128,0.088 -0.207,0.231 -0.211,0.386c-0.004,0.155 0.066,0.303 0.189,0.397c0.084,0.066 0.159,0.128 0.221,0.192c0.257,0.271 0.417,0.52 0.479,0.746c0.063,0.227 0.094,0.851 0.094,1.871l0,2.836c0,0.133 -0.052,0.26 -0.146,0.354c-0.094,0.094 -0.221,0.146 -0.354,0.146c-0.666,0 -1.838,0 -2.504,0c-0.276,0 -0.5,-0.223 -0.5,-0.5l0,-3.703c0,-0.677 -0.061,-1.096 -0.184,-1.258c-0.048,-0.063 -0.128,-0.115 -0.239,-0.153c-0.147,-0.079 -0.325,-0.075 -0.469,0.011c-0.143,0.086 -0.231,0.241 -0.231,0.408c-0.024,1.085 -0.024,3.618 -0.024,4.695c0,0.277 -0.224,0.5 -0.5,0.5c-0.723,0 -2.051,0 -2.774,0c-0.276,0 -0.5,-0.223 -0.5,-0.5c0,-2.027 0,-9.621 0,-11.648Zm4.468,1.749c-0.151,-0.066 -0.325,-0.051 -0.463,0.039c-0.137,0.091 -0.22,0.244 -0.22,0.409c-0.011,0.502 -0.011,1.25 -0.011,1.751c-0.001,0.16 0.076,0.31 0.205,0.404c0.13,0.094 0.296,0.121 0.449,0.072c0.094,-0.032 0.175,-0.062 0.237,-0.1c0.171,-0.101 0.256,-0.431 0.256,-0.988l0,-0.695c0,-0.401 -0.082,-0.665 -0.247,-0.789c-0.054,-0.042 -0.122,-0.076 -0.206,-0.103Z" style="fill:#02d0f5;fill-rule:nonzero;"/><path d="M63.56,17.094c0,0.132 -0.053,0.26 -0.146,0.353c-0.094,0.094 -0.221,0.147 -0.354,0.147c-0.723,0 -2.051,0 -2.773,0c-0.133,0 -0.26,-0.053 -0.354,-0.147c-0.094,-0.093 -0.146,-0.221 -0.146,-0.353l0,-1.699c0,-0.639 -0.041,-1.038 -0.121,-1.196c-0.081,-0.159 -0.259,-0.238 -0.534,-0.238c-0.31,0 -0.508,0.096 -0.591,0.289c-0.084,0.193 -0.126,0.609 -0.126,1.25l0,5.875c0,0.615 0.042,1.016 0.126,1.203c0.083,0.188 0.272,0.281 0.564,0.281c0.281,0 0.465,-0.094 0.552,-0.282c0.086,-0.187 0.13,-0.629 0.13,-1.323l0,-1.09c0,-0.133 0.052,-0.26 0.146,-0.353c0.094,-0.094 0.221,-0.147 0.354,-0.147c0.725,0 2.06,0 2.781,0c0.272,0 0.492,0.22 0.492,0.492l0,0.001c0,1.309 -0.106,2.238 -0.318,2.785c-0.212,0.548 -0.681,1.028 -1.407,1.44c-0.726,0.412 -1.621,0.618 -2.685,0.618c-1.105,0 -2.016,-0.174 -2.734,-0.523c-0.717,-0.349 -1.192,-0.832 -1.425,-1.45c-0.233,-0.617 -0.349,-1.545 -0.349,-2.785l0,-3.695c0,-0.912 0.036,-1.595 0.107,-2.051c0.072,-0.456 0.286,-0.894 0.641,-1.316c0.356,-0.422 0.849,-0.754 1.479,-0.996c0.631,-0.243 1.355,-0.364 2.174,-0.364c1.111,0 2.028,0.188 2.751,0.562c0.723,0.375 1.198,0.841 1.425,1.401c0.227,0.559 0.341,1.429 0.341,2.609l0,0.702Z" style="fill:#02d0f5;fill-rule:nonzero;"/><path d="M68.187,12.086c0.276,0 0.5,0.224 0.5,0.5c0,2.027 0,9.621 0,11.648c0,0.277 -0.224,0.5 -0.5,0.5c-0.723,0 -2.051,0 -2.774,0c-0.276,0 -0.5,-0.223 -0.5,-0.5c0,-2.027 0,-9.621 0,-11.648c0,-0.276 0.224,-0.5 0.5,-0.5c0.723,0 2.051,0 2.774,0Z" style="fill:#02d0f5;fill-rule:nonzero;"/><path d="M78.196,15.414c0,0.276 -0.223,0.5 -0.5,0.5c-0.666,0 -1.838,0 -2.504,0c-0.276,0 -0.5,-0.224 -0.5,-0.5l0,-0.437c0,-0.438 -0.045,-0.717 -0.135,-0.836c-0.089,-0.12 -0.239,-0.18 -0.448,-0.18c-0.227,0 -0.399,0.081 -0.515,0.242c-0.117,0.162 -0.175,0.407 -0.175,0.735c0,0.422 0.066,0.74 0.197,0.954c0.125,0.214 0.48,0.471 1.066,0.773c1.68,0.869 2.738,1.582 3.174,2.14c0.436,0.557 0.654,1.455 0.654,2.695c0,0.901 -0.121,1.565 -0.363,1.992c-0.242,0.427 -0.709,0.785 -1.403,1.074c-0.693,0.289 -1.499,0.434 -2.42,0.434c-1.009,0 -1.871,-0.167 -2.585,-0.5c-0.714,-0.333 -1.182,-0.758 -1.403,-1.273c-0.221,-0.516 -0.332,-1.248 -0.332,-2.196l0,-0.328c0,-0.276 0.224,-0.5 0.5,-0.5c0.667,0 1.839,0 2.505,0c0.276,0 0.5,0.224 0.5,0.5l0,1.039c0,0.474 0.049,0.779 0.148,0.914c0.098,0.136 0.273,0.203 0.524,0.203c0.251,0 0.438,-0.086 0.56,-0.257c0.123,-0.172 0.184,-0.428 0.184,-0.766c0,-0.745 -0.117,-1.232 -0.35,-1.461c-0.239,-0.229 -0.827,-0.612 -1.765,-1.148c-0.938,-0.542 -1.56,-0.935 -1.865,-1.18c-0.304,-0.245 -0.557,-0.583 -0.757,-1.016c-0.2,-0.432 -0.3,-0.984 -0.3,-1.656c0,-0.969 0.142,-1.677 0.426,-2.125c0.283,-0.448 0.742,-0.798 1.375,-1.051c0.634,-0.252 1.399,-0.379 2.295,-0.379c0.98,0 1.815,0.138 2.505,0.414c0.69,0.276 1.147,0.624 1.371,1.043c0.224,0.42 0.336,1.132 0.336,2.137l0,0Z" style="fill:#02d0f5;fill-rule:nonzero;"/><path d="M79.693,12.586c0,-0.276 0.224,-0.5 0.5,-0.5c1.178,0 4.115,0 5.292,0c0.276,0 0.5,0.224 0.5,0.5c0,0.443 0,1.088 0,1.531c0,0.133 -0.052,0.26 -0.146,0.354c-0.094,0.094 -0.221,0.146 -0.354,0.146c-0.44,0 -1.078,0 -1.518,0c-0.133,0 -0.26,0.053 -0.354,0.147c-0.094,0.093 -0.146,0.221 -0.146,0.353c0,0.41 0,0.988 0,1.399c0,0.276 0.224,0.5 0.5,0.5c0.399,0 0.957,0 1.357,0c0.276,0 0.5,0.223 0.5,0.5c0,0.412 0,0.994 0,1.406c0,0.276 -0.224,0.5 -0.5,0.5c-0.4,0 -0.958,0 -1.357,0c-0.276,0 -0.5,0.224 -0.5,0.5c0,0.504 0,1.277 0,1.781c0,0.133 0.052,0.26 0.146,0.354c0.094,0.093 0.221,0.146 0.354,0.146c0.501,0 1.268,0 1.769,0c0.133,0 0.26,0.053 0.354,0.147c0.094,0.093 0.146,0.221 0.146,0.353c0,0.444 0,1.088 0,1.531c0,0.133 -0.052,0.26 -0.146,0.354c-0.094,0.094 -0.221,0.146 -0.354,0.146c-1.217,0 -4.325,0 -5.543,0c-0.276,0 -0.5,-0.223 -0.5,-0.5c0,-2.027 0,-9.621 0,-11.648Z" style="fill:#02d0f5;fill-rule:nonzero;"/><path d="M97.657,12.086c0.133,0 0.26,0.053 0.354,0.146c0.093,0.094 0.146,0.221 0.146,0.354c0,0.443 0,1.088 0,1.531c0,0.133 -0.053,0.26 -0.146,0.354c-0.094,0.094 -0.221,0.146 -0.354,0.146c-0.37,0 -0.871,0 -1.241,0c-0.132,0 -0.26,0.053 -0.353,0.147c-0.094,0.093 -0.147,0.221 -0.147,0.353c0,1.722 0,7.395 0,9.117c0,0.133 -0.052,0.26 -0.146,0.354c-0.094,0.094 -0.221,0.146 -0.354,0.146c-0.722,0 -2.051,0 -2.773,0c-0.133,0 -0.26,-0.052 -0.354,-0.146c-0.094,-0.094 -0.146,-0.221 -0.146,-0.354c0,-1.722 0,-7.395 0,-9.117c0,-0.132 -0.053,-0.26 -0.147,-0.353c-0.093,-0.094 -0.221,-0.147 -0.353,-0.147c-0.368,0 -0.865,0 -1.232,0c-0.133,0 -0.26,-0.052 -0.354,-0.146c-0.093,-0.094 -0.146,-0.221 -0.146,-0.354c0,-0.443 0,-1.088 0,-1.531c0,-0.133 0.053,-0.26 0.146,-0.354c0.094,-0.093 0.221,-0.146 0.354,-0.146c1.471,0 5.775,0 7.246,0Z" style="fill:#02d0f5;fill-rule:nonzero;"/><path d="M99.017,12.586c0,-0.276 0.224,-0.5 0.5,-0.5l2.171,0c1.781,0 2.987,0.06 3.617,0.18c0.63,0.119 1.144,0.425 1.542,0.918c0.397,0.492 0.596,1.277 0.596,2.355c0,0.984 -0.141,1.646 -0.422,1.984c-0.089,0.108 -0.206,0.203 -0.351,0.283c-0.128,0.088 -0.206,0.231 -0.211,0.386c-0.004,0.155 0.067,0.303 0.19,0.397c0.083,0.066 0.159,0.128 0.22,0.192c0.257,0.271 0.417,0.52 0.479,0.746c0.063,0.227 0.095,0.851 0.095,1.871l0,2.836c0,0.133 -0.053,0.26 -0.147,0.354c-0.094,0.094 -0.221,0.146 -0.353,0.146c-0.667,0 -1.839,0 -2.505,0c-0.276,0 -0.5,-0.223 -0.5,-0.5l0,-3.703c0,-0.677 -0.061,-1.096 -0.184,-1.258c-0.048,-0.063 -0.128,-0.115 -0.239,-0.153c-0.147,-0.079 -0.325,-0.075 -0.469,0.011c-0.143,0.086 -0.231,0.241 -0.231,0.408c-0.024,1.085 -0.024,3.618 -0.024,4.695c0,0.277 -0.224,0.5 -0.5,0.5c-0.723,0 -2.051,0 -2.774,0c-0.276,0 -0.5,-0.223 -0.5,-0.5c0,-2.027 0,-9.621 0,-11.648Zm4.468,1.749c-0.151,-0.066 -0.325,-0.051 -0.462,0.039c-0.138,0.091 -0.221,0.244 -0.221,0.409c-0.011,0.502 -0.011,1.25 -0.011,1.751c0,0.16 0.076,0.31 0.205,0.404c0.13,0.094 0.297,0.121 0.449,0.072c0.095,-0.032 0.175,-0.062 0.238,-0.1c0.17,-0.101 0.255,-0.431 0.255,-0.988l0,-0.695c0,-0.401 -0.082,-0.665 -0.246,-0.789c-0.054,-0.042 -0.123,-0.076 -0.207,-0.103Z" style="fill:#02d0f5;fill-rule:nonzero;"/><path d="M115.004,12.086c0.244,0 0.452,0.176 0.493,0.416c0.319,1.866 1.616,9.472 1.988,11.648c0.024,0.146 -0.016,0.294 -0.111,0.407c-0.095,0.112 -0.235,0.177 -0.382,0.177c-0.773,0 -2.107,0 -2.807,0c-0.259,0 -0.475,-0.197 -0.498,-0.455c-0.035,-0.396 -0.086,-0.967 -0.121,-1.362c-0.023,-0.258 -0.239,-0.456 -0.498,-0.456c-0.142,0 -0.298,0 -0.44,0c-0.257,0 -0.472,0.195 -0.497,0.45c-0.04,0.398 -0.098,0.975 -0.137,1.373c-0.026,0.256 -0.241,0.45 -0.498,0.45c-0.71,0 -2.084,0 -2.867,0c-0.145,0 -0.284,-0.063 -0.379,-0.174c-0.095,-0.11 -0.137,-0.257 -0.115,-0.401c0.329,-2.161 1.486,-9.764 1.773,-11.648c0.037,-0.245 0.247,-0.425 0.494,-0.425c1.022,0 3.588,0 4.602,0Zm-2.146,8.133c0.143,0 0.28,-0.062 0.375,-0.17c0.095,-0.108 0.139,-0.251 0.12,-0.394c-0.03,-0.24 -0.06,-0.488 -0.09,-0.745c-0.029,-0.253 -0.242,-0.443 -0.497,-0.444c-0.254,0 -0.468,0.191 -0.497,0.444c-0.033,0.273 -0.062,0.527 -0.087,0.759c-0.014,0.141 0.032,0.281 0.127,0.385c0.094,0.105 0.229,0.165 0.37,0.165c0.059,0 0.119,0 0.179,0Z" style="fill:#02d0f5;fill-rule:nonzero;"/><path d="M127.036,17.094c0,0.132 -0.053,0.26 -0.147,0.353c-0.094,0.094 -0.221,0.147 -0.353,0.147c-0.723,0 -2.051,0 -2.774,0c-0.132,0 -0.26,-0.053 -0.353,-0.147c-0.094,-0.093 -0.147,-0.221 -0.147,-0.353l0,-1.699c0,-0.639 -0.04,-1.038 -0.121,-1.196c-0.08,-0.159 -0.258,-0.238 -0.533,-0.238c-0.311,0 -0.508,0.096 -0.592,0.289c-0.083,0.193 -0.125,0.609 -0.125,1.25l0,5.875c0,0.615 0.042,1.016 0.125,1.203c0.084,0.188 0.272,0.281 0.565,0.281c0.281,0 0.465,-0.094 0.551,-0.282c0.087,-0.187 0.13,-0.629 0.13,-1.323l0,-1.09c0,-0.133 0.053,-0.26 0.147,-0.353c0.093,-0.094 0.221,-0.147 0.353,-0.147c0.725,0 2.061,0 2.782,0c0.271,0 0.492,0.22 0.492,0.492l0,0.001c0,1.309 -0.106,2.238 -0.319,2.785c-0.212,0.548 -0.681,1.028 -1.407,1.44c-0.726,0.412 -1.621,0.618 -2.684,0.618c-1.106,0 -2.017,-0.174 -2.734,-0.523c-0.717,-0.349 -1.192,-0.832 -1.425,-1.45c-0.233,-0.617 -0.35,-1.545 -0.35,-2.785l0,-3.695c0,-0.912 0.036,-1.595 0.108,-2.051c0.072,-0.456 0.285,-0.894 0.641,-1.316c0.355,-0.422 0.848,-0.754 1.479,-0.996c0.63,-0.243 1.355,-0.364 2.173,-0.364c1.112,0 2.029,0.188 2.752,0.562c0.723,0.375 1.198,0.841 1.425,1.401c0.227,0.559 0.341,1.429 0.341,2.609l0,0.702Z" style="fill:#02d0f5;fill-rule:nonzero;"/><path d="M136.659,12.086c0.164,0 0.318,0.081 0.412,0.216c0.093,0.135 0.114,0.308 0.056,0.461c-0.499,1.315 -1.572,4.147 -1.844,4.865c-0.042,0.109 -0.044,0.229 -0.006,0.339c0.288,0.842 1.562,4.572 2.086,6.106c0.053,0.152 0.028,0.321 -0.066,0.452c-0.094,0.131 -0.245,0.209 -0.407,0.209c-0.826,0 -2.169,0 -2.821,0c-0.224,0 -0.42,-0.148 -0.481,-0.364c-0.1,-0.355 -0.263,-0.934 -0.444,-1.576c-0.068,-0.24 -0.303,-0.394 -0.55,-0.36c-0.247,0.034 -0.432,0.246 -0.432,0.496c0,0.512 0,0.975 0,1.304c0,0.133 -0.052,0.26 -0.146,0.354c-0.094,0.094 -0.221,0.146 -0.354,0.146c-0.722,0 -2.05,0 -2.773,0c-0.276,0 -0.5,-0.223 -0.5,-0.5c0,-2.027 0,-9.621 0,-11.648c0,-0.276 0.224,-0.5 0.5,-0.5c0.723,0 2.051,0 2.773,0c0.277,0 0.5,0.224 0.5,0.5c0,0.354 0,0.861 0,1.407c0,0.244 0.177,0.453 0.418,0.493c0.242,0.04 0.476,-0.1 0.555,-0.331c0.239,-0.697 0.463,-1.351 0.592,-1.731c0.069,-0.202 0.26,-0.338 0.473,-0.338c0.574,0 1.711,0 2.459,0Z" style="fill:#02d0f5;fill-rule:nonzero;"/><path d="M138.239,12.586c0,-0.276 0.224,-0.5 0.5,-0.5c1.178,0 4.115,0 5.292,0c0.276,0 0.5,0.224 0.5,0.5c0,0.443 0,1.088 0,1.531c0,0.133 -0.052,0.26 -0.146,0.354c-0.094,0.094 -0.221,0.146 -0.354,0.146c-0.44,0 -1.078,0 -1.518,0c-0.133,0 -0.26,0.053 -0.354,0.147c-0.094,0.093 -0.146,0.221 -0.146,0.353c0,0.41 0,0.988 0,1.399c0,0.276 0.224,0.5 0.5,0.5c0.399,0 0.957,0 1.357,0c0.276,0 0.5,0.223 0.5,0.5c0,0.412 0,0.994 0,1.406c0,0.276 -0.224,0.5 -0.5,0.5c-0.4,0 -0.958,0 -1.357,0c-0.276,0 -0.5,0.224 -0.5,0.5c0,0.504 0,1.277 0,1.781c0,0.133 0.052,0.26 0.146,0.354c0.094,0.093 0.221,0.146 0.354,0.146c0.501,0 1.268,0 1.769,0c0.133,0 0.26,0.053 0.354,0.147c0.094,0.093 0.146,0.221 0.146,0.353c0,0.444 0,1.088 0,1.531c0,0.133 -0.052,0.26 -0.146,0.354c-0.094,0.094 -0.221,0.146 -0.354,0.146c-1.217,0 -4.325,0 -5.543,0c-0.276,0 -0.5,-0.223 -0.5,-0.5c0,-2.027 0,-9.621 0,-11.648Z" style="fill:#02d0f5;fill-rule:nonzero;"/><path d="M145.867,12.586c0,-0.276 0.224,-0.5 0.5,-0.5l2.171,0c1.78,0 2.986,0.06 3.616,0.18c0.631,0.119 1.145,0.425 1.542,0.918c0.397,0.492 0.596,1.277 0.596,2.355c0,0.984 -0.14,1.646 -0.421,1.984c-0.09,0.108 -0.207,0.203 -0.352,0.283c-0.128,0.088 -0.206,0.231 -0.21,0.386c-0.004,0.155 0.066,0.303 0.189,0.397c0.084,0.066 0.159,0.128 0.22,0.192c0.257,0.271 0.417,0.52 0.48,0.746c0.063,0.227 0.094,0.851 0.094,1.871l0,2.836c0,0.133 -0.053,0.26 -0.147,0.354c-0.093,0.094 -0.22,0.146 -0.353,0.146c-0.666,0 -1.838,0 -2.505,0c-0.276,0 -0.5,-0.223 -0.5,-0.5l0,-3.703c0,-0.677 -0.061,-1.096 -0.183,-1.258c-0.049,-0.063 -0.128,-0.115 -0.239,-0.153c-0.148,-0.079 -0.326,-0.075 -0.469,0.011c-0.144,0.086 -0.232,0.241 -0.232,0.408c-0.024,1.085 -0.024,3.618 -0.024,4.695c0,0.277 -0.224,0.5 -0.5,0.5c-0.722,0 -2.051,0 -2.773,0c-0.276,0 -0.5,-0.223 -0.5,-0.5c0,-2.027 0,-9.621 0,-11.648Zm4.468,1.749c-0.151,-0.066 -0.325,-0.051 -0.463,0.039c-0.138,0.091 -0.221,0.244 -0.221,0.409c-0.011,0.502 -0.011,1.25 -0.011,1.751c0,0.16 0.076,0.31 0.206,0.404c0.129,0.094 0.296,0.121 0.448,0.072c0.095,-0.032 0.175,-0.062 0.238,-0.1c0.17,-0.101 0.255,-0.431 0.255,-0.988l0,-0.695c0,-0.402 -0.082,-0.665 -0.246,-0.789c-0.054,-0.042 -0.123,-0.076 -0.206,-0.103Z" style="fill:#02d0f5;fill-rule:nonzero;"/></g><path d="M270,12.699c2.105,-3.601 6.316,-3.601 8.421,-1.8c2.105,1.8 3.073,6.182 0,9.003c-2.345,2.152 -5.843,5.037 -8.421,7.203c-2.808,-2.338 -6.475,-5.226 -8.421,-7.203c-2.926,-2.973 -2.105,-7.203 0,-9.003c2.105,-1.801 6.316,-1.801 8.421,1.8Z" style="fill:#ff00b0;"/><path d="M261.442,20.484l3.686,-0.087l2.457,-4.914l2.445,7.634l2.907,-4.707l1.755,2.074l5.688,0" style="fill:none;stroke:#323232;stroke-width:0.73px;"/><path d="M212.37,55.092c0,-3.139 -2.549,-5.688 -5.689,-5.688l-114.701,0c-3.14,0 -5.689,2.549 -5.689,5.688l0,59.729c0,3.139 2.549,5.688 5.689,5.688l114.701,0c3.14,0 5.689,-2.549 5.689,-5.688l0,-59.729Z" style="fill:#6bff77;"/><path d="M98.138,84.956l59.448,-29.796l44.72,24.22l0.267,34.156l-53.242,-1.606l-51.193,-26.974Z" style="fill:none;stroke:#000;stroke-width:0.87px;"/><path d="M98.138,84.956c0,0 2.009,-4.354 2.009,-6.22c0,-1.108 -0.9,-2.008 -2.009,-2.008c-1.108,0 -2.008,0.9 -2.008,2.008c0,1.866 2.008,6.22 2.008,6.22Z" style="fill:#02d0f5;stroke:#000;stroke-width:0.5px;"/><path d="M157.436,55.16c0,0 2.008,-4.354 2.008,-6.22c0,-1.109 -0.9,-2.009 -2.008,-2.009c-1.108,0 -2.008,0.9 -2.008,2.009c0,1.866 2.008,6.22 2.008,6.22Z" style="fill:#02d0f5;stroke:#000;stroke-width:0.5px;"/><path d="M202.573,79.38c0,0 2.009,-4.354 2.009,-6.22c0,-1.108 -0.9,-2.008 -2.009,-2.008c-1.108,0 -2.008,0.9 -2.008,2.008c0,1.866 2.008,6.22 2.008,6.22Z" style="fill:#02d0f5;stroke:#000;stroke-width:0.5px;"/><path d="M149.445,111.457c0,0 2.009,-4.355 2.009,-6.221c0,-1.108 -0.9,-2.008 -2.009,-2.008c-1.108,0 -2.008,0.9 -2.008,2.008c0,1.866 2.008,6.221 2.008,6.221Z" style="fill:#02d0f5;stroke:#000;stroke-width:0.5px;"/><path d="M202.402,113.485c0,0 2.008,-4.354 2.008,-6.22c0,-1.109 -0.9,-2.009 -2.008,-2.009c-1.108,0 -2.008,0.9 -2.008,2.009c0,1.866 2.008,6.22 2.008,6.22Z" style="fill:#ff4362;stroke:#000;stroke-width:0.5px;"/><rect x="24.016" y="49.404" width="55.23" height="32.301" style="fill:#8c8c8c;"/><rect x="219.497" y="49.404" width="55.23" height="32.301" style="fill:#8c8c8c;"/><rect x="24.016" y="88.208" width="55.23" height="32.301" style="fill:#8c8c8c;"/><rect x="219.497" y="88.208" width="55.23" height="32.301" style="fill:#8c8c8c;"/><path d="M63.511,150.173c0.087,0 0.146,0.02 0.178,0.059c0.031,0.038 0.047,0.095 0.047,0.17l0,3.771c0,0.023 -0.006,0.043 -0.017,0.058c-0.012,0.016 -0.031,0.03 -0.059,0.041c-0.027,0.012 -0.064,0.021 -0.11,0.026c-0.046,0.006 -0.102,0.009 -0.168,0.009c-0.072,0 -0.131,-0.003 -0.177,-0.009c-0.046,-0.005 -0.083,-0.014 -0.11,-0.026c-0.028,-0.011 -0.047,-0.025 -0.059,-0.041c-0.011,-0.015 -0.017,-0.035 -0.017,-0.058l0,-3.408l-2.009,0l0,2.168c0,0.268 0.04,0.47 0.119,0.607c0.079,0.137 0.221,0.205 0.426,0.205c0.066,0 0.125,-0.006 0.177,-0.019c0.052,-0.013 0.098,-0.027 0.138,-0.041c0.04,-0.014 0.075,-0.028 0.104,-0.041c0.029,-0.013 0.054,-0.02 0.077,-0.02c0.015,0 0.029,0.004 0.042,0.011c0.012,0.007 0.023,0.021 0.03,0.041c0.007,0.02 0.013,0.048 0.019,0.082c0.006,0.035 0.009,0.078 0.009,0.13c0,0.083 -0.006,0.149 -0.017,0.197c-0.012,0.047 -0.029,0.083 -0.052,0.107c-0.023,0.025 -0.058,0.047 -0.104,0.067c-0.046,0.021 -0.099,0.037 -0.158,0.05c-0.059,0.013 -0.121,0.024 -0.188,0.033c-0.066,0.008 -0.132,0.012 -0.198,0.012c-0.202,0 -0.375,-0.026 -0.519,-0.079c-0.144,-0.054 -0.262,-0.134 -0.354,-0.242c-0.092,-0.108 -0.159,-0.245 -0.201,-0.411c-0.041,-0.165 -0.062,-0.36 -0.062,-0.585l0,-2.272l-0.544,0c-0.044,0 -0.078,-0.023 -0.104,-0.069c-0.026,-0.046 -0.039,-0.121 -0.039,-0.225c0,-0.054 0.004,-0.101 0.011,-0.138c0.007,-0.037 0.016,-0.068 0.028,-0.093c0.011,-0.024 0.026,-0.042 0.045,-0.052c0.019,-0.01 0.04,-0.015 0.063,-0.015l0.54,0l0,-0.924c0,-0.02 0.005,-0.039 0.015,-0.056c0.01,-0.018 0.029,-0.033 0.056,-0.046c0.027,-0.013 0.064,-0.022 0.11,-0.028c0.046,-0.005 0.104,-0.008 0.173,-0.008c0.072,0 0.131,0.003 0.177,0.008c0.046,0.006 0.082,0.015 0.108,0.028c0.026,0.013 0.045,0.028 0.056,0.046c0.012,0.017 0.017,0.036 0.017,0.056l0,0.924l2.501,0Zm0.307,-1.201c0,0.167 -0.032,0.281 -0.095,0.342c-0.063,0.06 -0.18,0.09 -0.35,0.09c-0.167,0 -0.281,-0.029 -0.343,-0.088c-0.062,-0.059 -0.093,-0.171 -0.093,-0.335c0,-0.167 0.032,-0.281 0.095,-0.341c0.063,-0.061 0.18,-0.091 0.35,-0.091c0.167,0 0.281,0.03 0.343,0.089c0.062,0.059 0.093,0.17 0.093,0.334Z" style="fill:#fff;"/><text x="26.421px" y="154.281px" style="font-family:'Calibri', sans-serif;font-size:8.846px;fill:#fff;">Fin<tspan x="36.988px 41.56px 43.527px 47.185px 51.774px 55.381px 64.316px " y="154.281px 154.281px 154.281px 154.281px 154.281px 154.281px 154.281px ">d Locao</tspan>n</text><text x="101.403px" y="154.013px" style="font-family:'Calibri', sans-serif;font-size:8.846px;fill:#fff;">Di<tspan x="108.753px 112.059px " y="154.013px 154.013px ">st</tspan>anc<tspan x="127.287px " y="154.013px ">e</tspan></text><text x="172.605px" y="153.536px" style="font-family:'Calibri', sans-serif;font-size:8.846px;fill:#fff;">Sp<tspan x="181.175px 185.504px 189.834px " y="153.536px 153.536px 153.536px ">eed</tspan></text><text x="237.659px" y="154.013px" style="font-family:'Calibri', sans-serif;font-size:8.846px;fill:#fff;">En<tspan x="246.48px 250.809px 253.724px " y="154.013px 154.013px 154.013px ">erg</tspan>y</text><path d="M244.669,129.38l5.662,0" style="fill:none;stroke:#fff;stroke-width:0.73px;"/><path d="M69.387,171.924c0,-1.55 -1.259,-2.809 -2.81,-2.809l-33.154,0c-1.551,0 -2.81,1.259 -2.81,2.809l0,5.62c0,1.551 1.259,2.81 2.81,2.81l33.154,0c1.551,0 2.81,-1.259 2.81,-2.81l0,-5.62Z" style="fill:#fff;stroke:#fff;stroke-width:0.73px;"/><path d="M69.387,171.924c0,-1.55 -1.259,-2.809 -2.81,-2.809l-5.734,0c-1.551,0 -2.81,1.259 -2.81,2.809l0,5.62c0,1.551 1.259,2.81 2.81,2.81l5.734,0c1.551,0 2.81,-1.259 2.81,-2.81l0,-5.62Z" style="fill:#323232;stroke:#fff;stroke-width:0.73px;"/><path d="M136.054,171.924c0,-1.55 -1.259,-2.809 -2.81,-2.809l-33.155,0c-1.551,0 -2.81,1.259 -2.81,2.809l0,5.62c0,1.551 1.259,2.81 2.81,2.81l33.155,0c1.551,0 2.81,-1.259 2.81,-2.81l0,-5.62Z" style="fill:#fff;stroke:#fff;stroke-width:0.73px;"/><path d="M202.721,171.924c0,-1.55 -1.259,-2.809 -2.81,-2.809l-33.155,0c-1.551,0 -2.81,1.259 -2.81,2.809l0,5.62c0,1.551 1.259,2.81 2.81,2.81l33.155,0c1.551,0 2.81,-1.259 2.81,-2.81l0,-5.62Z" style="fill:#fff;stroke:#fff;stroke-width:0.73px;"/><path d="M202.721,171.924c0,-1.55 -1.259,-2.809 -2.81,-2.809l-5.734,0c-1.551,0 -2.81,1.259 -2.81,2.809l0,5.62c0,1.551 1.259,2.81 2.81,2.81l5.734,0c1.551,0 2.81,-1.259 2.81,-2.81l0,-5.62Z" style="fill:#323232;stroke:#fff;stroke-width:0.73px;"/><path d="M269.387,171.924c0,-1.55 -1.259,-2.809 -2.81,-2.809l-33.154,0c-1.551,0 -2.81,1.259 -2.81,2.809l0,5.62c0,1.551 1.259,2.81 2.81,2.81l33.154,0c1.551,0 2.81,-1.259 2.81,-2.81l0,-5.62Z" style="fill:#fff;stroke:#fff;stroke-width:0.73px;"/><path d="M241.967,171.924c0,-1.55 -1.259,-2.809 -2.81,-2.809l-5.734,0c-1.551,0 -2.81,1.259 -2.81,2.809l0,5.62c0,1.551 1.259,2.81 2.81,2.81l5.734,0c1.551,0 2.81,-1.259 2.81,-2.81l0,-5.62Z" style="fill:#323232;stroke:#fff;stroke-width:0.73px;"/><path d="M243.518,171.924c0,-1.55 -1.259,-2.809 -2.81,-2.809l-7.285,0c-1.551,0 -2.81,1.259 -2.81,2.809l0,5.62c0,1.551 1.259,2.81 2.81,2.81l7.285,0c1.551,0 2.81,-1.259 2.81,-2.81l0,-5.62Z" style="fill:#323232;stroke:#fff;stroke-width:0.73px;"/><path d="M256.453,171.924c0,-1.55 -1.259,-2.809 -2.81,-2.809l-7.286,0c-1.551,0 -2.81,1.259 -2.81,2.809l0,5.62c0,1.551 1.259,2.81 2.81,2.81l7.286,0c1.551,0 2.81,-1.259 2.81,-2.81l0,-5.62Z" style="fill:#323232;stroke:#fff;stroke-width:0.73px;"/><path d="M269.387,171.924c0,-1.55 -1.259,-2.809 -2.81,-2.809l-7.285,0c-1.551,0 -2.81,1.259 -2.81,2.809l0,5.62c0,1.551 1.259,2.81 2.81,2.81l7.285,0c1.551,0 2.81,-1.259 2.81,-2.81l0,-5.62Z" style="fill:#323232;stroke:#fff;stroke-width:0.73px;"/><rect x="206.465" y="36.207" width="23.289" height="8.936" style="fill:#02d0f5;stroke:#323232;stroke-width:0.73px;"/><rect x="231.034" y="36.207" width="23.289" height="8.936" style="fill:#b5b5b5;stroke:#323232;stroke-width:0.73px;"/><path d="M278.511,40.263c0,-2.24 -1.816,-4.056 -4.056,-4.056c-6.672,0 -19.233,0 -19.233,0l0,8.936l23.289,0c0,0 0,-2.518 0,-4.88Z" style="fill:#6e6e6e;stroke:#323232;stroke-width:0.73px;"/><defs><linearGradient id="_Linear1" x1="0" y1="0" x2="1" y2="0" gradientUnits="userSpaceOnUse" gradientTransform="matrix(6.12323e-15,100,-100,6.12323e-15,150,100)"><stop offset="0" style="stop-color:#323232;stop-opacity:1"/><stop offset="1" style="stop-color:#00d8ff;stop-opacity:1"/></linearGradient></defs></svg>