<?xml version="1.0" encoding="UTF-8" standalone="no"?><!DOCTYPE svg PUBLIC "-//W3C//DTD SVG 1.1//EN" "http://www.w3.org/Graphics/SVG/1.1/DTD/svg11.dtd"><svg width="100%" height="100%" viewBox="0 0 1280 800" version="1.1" xmlns="http://www.w3.org/2000/svg" xmlns:xlink="http://www.w3.org/1999/xlink" xml:space="preserve" style="fill-rule:evenodd;clip-rule:evenodd;stroke-linecap:round;stroke-linejoin:round;stroke-miterlimit:1.5;"><g id="Legs"><g id="Fourth-Legs"><path id="Left" d="M541.66,398.045c10.24,0.781 19.761,-6.823 26.46,-12.652c12.242,-10.65 18.94,-24.803 24.074,-38.674c1.84,-4.973 7.924,-22.018 -3.559,-23.474c-16.222,-2.057 -32.028,2.365 -48.151,5.053c-13.43,2.239 -35.063,5.714 -48.684,5.885c-27.839,0.349 -56.491,-13.552 -84.517,-4.517c-27.418,8.839 -27.078,69.942 -80.023,71.818c-30.717,1.089 -58.239,-32.066 -65.641,-60.602c-4.472,-17.24 -1.566,-37.988 14.039,-51.827c7.917,-7.021 24.635,-17.885 34.946,-21.976c46.482,-18.441 114.699,-28.892 120.659,-73.258c1.203,-8.952 -0.839,-14.482 -1.853,-22.827c-2.085,-17.169 -11.095,-34.282 -29.86,-41.004c-7.759,-2.78 -16.956,-3.691 -25.169,-4.476c-15.684,-1.499 -49.875,1.424 -49.706,-19.499c0.075,-9.396 8.179,-17.43 16.956,-22.339c17.605,-9.847 45.328,-12.057 57.195,-28.569c2.149,-2.991 3.626,-6.344 4.655,-9.711c1.001,-3.272 1.571,-6.685 1.372,-10.002c-1.078,-18.048 -4.732,-18.712 -7.352,2.033c-2.621,20.759 -28.103,23.861 -46.129,29.395c-8.494,2.609 -18.565,6.334 -25.615,11.647c-12.553,9.461 -17.738,25.396 -13.184,38.671c5.648,16.466 27.118,18.265 43.25,22.316c9.587,2.408 30.011,3.103 38.364,7.993c15.052,8.811 15.766,27.906 9.498,44.515c-2.725,7.221 -9.079,13.06 -15.623,17.936c-20.045,14.94 -45.874,19.817 -69.829,26.249c-35.503,9.532 -79.861,21.69 -98.512,53.754c-5.749,9.884 -8.97,23.123 -9.858,33.636c-0.5,5.922 -0.164,11.864 0.645,17.686c2.421,17.406 5.946,33.367 18.106,46.985c30.423,34.072 90.6,75.828 132.357,55.074c20.971,-10.424 46.394,-65.326 70.942,-68.031c26.116,-2.878 41.329,22.497 64.87,28.805c14.863,3.983 29.411,-8.89 44.877,-6.013" style="fill:url(#_Linear1);"/><clipPath id="_clip2"><path d="M541.66,398.045c10.24,0.781 19.761,-6.823 26.46,-12.652c12.242,-10.65 18.94,-24.803 24.074,-38.674c1.84,-4.973 7.924,-22.018 -3.559,-23.474c-16.222,-2.057 -32.028,2.365 -48.151,5.053c-13.43,2.239 -35.063,5.714 -48.684,5.885c-27.839,0.349 -56.491,-13.552 -84.517,-4.517c-27.418,8.839 -27.078,69.942 -80.023,71.818c-30.717,1.089 -58.239,-32.066 -65.641,-60.602c-4.472,-17.24 -1.566,-37.988 14.039,-51.827c7.917,-7.021 24.635,-17.885 34.946,-21.976c46.482,-18.441 114.699,-28.892 120.659,-73.258c1.203,-8.952 -0.839,-14.482 -1.853,-22.827c-2.085,-17.169 -11.095,-34.282 -29.86,-41.004c-7.759,-2.78 -16.956,-3.691 -25.169,-4.476c-15.684,-1.499 -49.875,1.424 -49.706,-19.499c0.075,-9.396 8.179,-17.43 16.956,-22.339c17.605,-9.847 45.328,-12.057 57.195,-28.569c2.149,-2.991 3.626,-6.344 4.655,-9.711c1.001,-3.272 1.571,-6.685 1.372,-10.002c-1.078,-18.048 -4.732,-18.712 -7.352,2.033c-2.621,20.759 -28.103,23.861 -46.129,29.395c-8.494,2.609 -18.565,6.334 -25.615,11.647c-12.553,9.461 -17.738,25.396 -13.184,38.671c5.648,16.466 27.118,18.265 43.25,22.316c9.587,2.408 30.011,3.103 38.364,7.993c15.052,8.811 15.766,27.906 9.498,44.515c-2.725,7.221 -9.079,13.06 -15.623,17.936c-20.045,14.94 -45.874,19.817 -69.829,26.249c-35.503,9.532 -79.861,21.69 -98.512,53.754c-5.749,9.884 -8.97,23.123 -9.858,33.636c-0.5,5.922 -0.164,11.864 0.645,17.686c2.421,17.406 5.946,33.367 18.106,46.985c30.423,34.072 90.6,75.828 132.357,55.074c20.971,-10.424 46.394,-65.326 70.942,-68.031c26.116,-2.878 41.329,22.497 64.87,28.805c14.863,3.983 29.411,-8.89 44.877,-6.013"/></clipPath><g clip-path="url(#_clip2)"><g id="Shadows"><path d="M260.264,417.214c7.79,-2.795 22.081,-27.226 23.48,-36.95c1.243,-8.636 -7.291,-24.188 -15.082,-21.393c-7.791,2.795 -30.262,28.44 -31.662,38.164c-1.4,9.723 15.473,22.974 23.264,20.179Z" style="fill:#300000;"/><path d="M344.162,255.42c3.883,-2.802 -0.759,-18.446 -8.423,-23.805c-4.233,-2.96 -18.259,0.29 -15.394,3.972c2.637,3.39 11.46,19.086 11.783,23.783c0.29,4.212 8.61,-1.479 12.034,-3.95Z" style="fill:#300000;"/><path d="M450.779,378.054c5.197,0.428 29.376,-16.617 50.352,-44.361c8.165,-10.8 41.77,-17.63 41.665,-5.792c-0.105,11.838 -26.959,68.462 -42.295,76.821c-15.336,8.359 -61.51,-27.637 -49.722,-26.668Z" style="fill:#300000;"/></g></g><path id="Right" d="M738.55,398.045c-10.24,0.781 -19.761,-6.823 -26.46,-12.652c-12.242,-10.65 -18.94,-24.803 -24.074,-38.674c-1.84,-4.973 -7.924,-22.018 3.559,-23.474c16.222,-2.057 32.028,2.365 48.151,5.053c13.43,2.239 35.063,5.714 48.684,5.885c27.839,0.349 56.491,-13.552 84.517,-4.517c27.418,8.839 27.078,69.942 80.023,71.818c30.717,1.089 58.239,-32.066 65.641,-60.602c4.472,-17.24 1.566,-37.988 -14.039,-51.827c-7.917,-7.021 -24.635,-17.885 -34.946,-21.976c-46.482,-18.441 -114.699,-28.892 -120.659,-73.258c-1.203,-8.952 0.839,-14.482 1.853,-22.827c2.085,-17.169 11.095,-34.282 29.86,-41.004c7.759,-2.78 16.956,-3.691 25.169,-4.476c15.684,-1.499 49.875,1.424 49.706,-19.499c-0.075,-9.396 -8.179,-17.43 -16.956,-22.339c-17.605,-9.847 -45.328,-12.057 -57.195,-28.569c-2.149,-2.991 -3.626,-6.344 -4.655,-9.711c-1.001,-3.272 -1.571,-6.685 -1.373,-10.002c1.079,-18.048 4.733,-18.712 7.353,2.033c2.621,20.759 28.103,23.861 46.129,29.395c8.494,2.609 18.565,6.334 25.615,11.647c12.553,9.461 17.738,25.396 13.184,38.671c-5.648,16.466 -27.118,18.265 -43.25,22.316c-9.588,2.408 -30.011,3.103 -38.364,7.993c-15.052,8.811 -15.766,27.906 -9.498,44.515c2.725,7.221 9.079,13.06 15.623,17.936c20.045,14.94 45.874,19.817 69.829,26.249c35.503,9.532 79.861,21.69 98.512,53.754c5.749,9.884 8.97,23.123 9.858,33.636c0.5,5.922 0.164,11.864 -0.645,17.686c-2.421,17.406 -5.946,33.367 -18.106,46.985c-30.423,34.072 -90.6,75.828 -132.357,55.074c-20.971,-10.424 -46.394,-65.326 -70.942,-68.031c-26.116,-2.878 -41.329,22.497 -64.87,28.805c-14.863,3.983 -29.411,-8.89 -44.877,-6.013" style="fill:url(#_Linear3);"/></g><g id="Third-Legs"><path id="Left1" d="M530.421,442.415c9.056,-2.512 12.735,-13.511 15.051,-21.747c4.232,-15.05 1.809,-31.943 -1.769,-48.034c-1.284,-5.77 -5.869,-25.47 -16.356,-23.257c-14.814,3.127 -25.589,12.857 -37.618,20.886c-10.02,6.689 -26.235,17.325 -37.593,21.925c-23.213,9.401 -55.223,4.245 -73.649,22.739c-18.027,18.093 -22.848,46.972 -42.103,63.493c-20.621,17.693 -51.545,22.732 -74.015,-4.541c-13.574,-16.477 -22.941,-38.997 -17.695,-58.455c2.661,-9.872 10.537,-26.597 16.88,-34.199c28.593,-34.267 80.014,-67.281 59.772,-115.354c-4.084,-9.7 -8.95,-14.788 -14.553,-23.137c-11.527,-17.179 -28.845,-32.05 -48.453,-32.949c-8.108,-0.372 -16.361,1.666 -23.715,3.516c-14.043,3.533 -41.134,17.672 -52.902,-4.142c-5.285,-9.795 -3.043,-20.781 1.544,-28.735c9.2,-15.956 31.258,-27.254 31.838,-48.279c0.105,-3.807 -0.562,-7.774 -1.613,-11.609c-1.021,-3.728 -2.485,-7.462 -4.54,-10.848c-11.18,-18.418 -32.104,-23.149 -50.04,-24.767c-7.582,-0.684 -7.473,-1.29 -24.511,0.244c-18.467,1.663 -26.062,10.92 -28.124,15.107c-6.253,12.698 17.762,23.201 27.593,19.536c7.352,-2.741 7.663,-11.633 5.131,-11.997c-2.155,-0.31 1.946,7.855 -8.347,9.581c-3.418,0.572 -8.804,-1.112 -11.273,-1.859c-7.172,-2.172 -13.575,-8.946 -8.301,-14.706c7.895,-8.623 25.428,-10.833 38.339,-10.861c11.902,-0.026 44.902,1.8 54.507,24.223c9.613,22.44 -10.052,33.938 -22.06,45.545c-5.659,5.47 -12.009,12.614 -14.913,20.428c-5.171,13.914 -0.461,32.169 10.925,44.496c14.124,15.289 33.203,10.191 49.076,9.167c9.434,-0.608 27.005,-6.516 36.814,-4.142c17.675,4.277 29.144,23.902 33.328,43.21c1.818,8.394 -0.202,16.528 -2.929,23.724c-8.354,22.044 -27.299,35.501 -43.784,49.966c-24.432,21.439 -54.815,48.483 -52.249,87.881c0.792,12.146 5.619,26.959 10.857,38.18c2.95,6.322 6.615,12.391 10.61,18.184c11.944,17.315 23.994,32.769 41.972,42.984c44.982,25.557 90.997,3.229 114.299,-31.911c11.704,-17.648 19.025,-40.153 38.13,-50.935c20.325,-11.471 48.482,-12.47 71.87,-13.552c14.767,-0.683 29.925,7.03 44.569,5.001" style="fill:url(#_Linear4);"/><clipPath id="_clip5"><path d="M530.421,442.415c9.056,-2.512 12.735,-13.511 15.051,-21.747c4.232,-15.05 1.809,-31.943 -1.769,-48.034c-1.284,-5.77 -5.869,-25.47 -16.356,-23.257c-14.814,3.127 -25.589,12.857 -37.618,20.886c-10.02,6.689 -26.235,17.325 -37.593,21.925c-23.213,9.401 -55.223,4.245 -73.649,22.739c-18.027,18.093 -22.848,46.972 -42.103,63.493c-20.621,17.693 -51.545,22.732 -74.015,-4.541c-13.574,-16.477 -22.941,-38.997 -17.695,-58.455c2.661,-9.872 10.537,-26.597 16.88,-34.199c28.593,-34.267 80.014,-67.281 59.772,-115.354c-4.084,-9.7 -8.95,-14.788 -14.553,-23.137c-11.527,-17.179 -28.845,-32.05 -48.453,-32.949c-8.108,-0.372 -16.361,1.666 -23.715,3.516c-14.043,3.533 -41.134,17.672 -52.902,-4.142c-5.285,-9.795 -3.043,-20.781 1.544,-28.735c9.2,-15.956 31.258,-27.254 31.838,-48.279c0.105,-3.807 -0.562,-7.774 -1.613,-11.609c-1.021,-3.728 -2.485,-7.462 -4.54,-10.848c-11.18,-18.418 -32.104,-23.149 -50.04,-24.767c-7.582,-0.684 -7.473,-1.29 -24.511,0.244c-18.467,1.663 -26.062,10.92 -28.124,15.107c-6.253,12.698 17.762,23.201 27.593,19.536c7.352,-2.741 7.663,-11.633 5.131,-11.997c-2.155,-0.31 1.946,7.855 -8.347,9.581c-3.418,0.572 -8.804,-1.112 -11.273,-1.859c-7.172,-2.172 -13.575,-8.946 -8.301,-14.706c7.895,-8.623 25.428,-10.833 38.339,-10.861c11.902,-0.026 44.902,1.8 54.507,24.223c9.613,22.44 -10.052,33.938 -22.06,45.545c-5.659,5.47 -12.009,12.614 -14.913,20.428c-5.171,13.914 -0.461,32.169 10.925,44.496c14.124,15.289 33.203,10.191 49.076,9.167c9.434,-0.608 27.005,-6.516 36.814,-4.142c17.675,4.277 29.144,23.902 33.328,43.21c1.818,8.394 -0.202,16.528 -2.929,23.724c-8.354,22.044 -27.299,35.501 -43.784,49.966c-24.432,21.439 -54.815,48.483 -52.249,87.881c0.792,12.146 5.619,26.959 10.857,38.18c2.95,6.322 6.615,12.391 10.61,18.184c11.944,17.315 23.994,32.769 41.972,42.984c44.982,25.557 90.997,3.229 114.299,-31.911c11.704,-17.648 19.025,-40.153 38.13,-50.935c20.325,-11.471 48.482,-12.47 71.87,-13.552c14.767,-0.683 29.925,7.03 44.569,5.001"/></clipPath><g clip-path="url(#_clip5)"><g id="Shadows1"><path d="M269.869,481.565c-7.141,5.288 -22.482,32.758 -22.63,42.097c-0.137,8.608 14.824,19.061 21.742,13.938c7.141,-5.288 20.956,-36.326 21.104,-45.666c0.12,-7.572 -14.129,-14.876 -20.216,-10.369Z" style="fill:#4b0000;"/><path d="M244.321,437.795c-3.255,-5.352 -31.794,3.838 -43.117,13.754c-3.233,2.831 -4.149,-8.597 -2.638,-12.621c3.266,-8.701 33.004,-18.893 44.697,-14.548c4.205,1.563 3.388,17.248 1.058,13.415Z" style="fill:#4b0000;"/></g></g><path id="Right1" d="M749.579,442.415c-9.056,-2.512 -12.735,-13.511 -15.051,-21.747c-4.232,-15.05 -1.809,-31.943 1.769,-48.034c1.284,-5.77 5.869,-25.47 16.356,-23.257c14.814,3.127 25.589,12.857 37.618,20.886c10.02,6.689 26.235,17.325 37.593,21.925c23.213,9.401 55.223,4.245 73.649,22.739c18.027,18.093 22.848,46.972 42.103,63.493c20.621,17.693 51.545,22.732 74.015,-4.541c13.574,-16.477 22.941,-38.997 17.695,-58.455c-2.661,-9.872 -10.537,-26.597 -16.88,-34.199c-28.593,-34.267 -80.014,-67.281 -59.772,-115.354c4.084,-9.7 8.95,-14.788 14.553,-23.137c11.527,-17.179 28.845,-32.05 48.453,-32.949c8.108,-0.372 16.361,1.666 23.715,3.516c14.043,3.533 41.134,17.672 52.902,-4.142c5.285,-9.795 3.043,-20.781 -1.544,-28.735c-9.2,-15.956 -31.258,-27.254 -31.838,-48.279c-0.105,-3.807 0.562,-7.774 1.613,-11.609c1.021,-3.728 2.485,-7.462 4.54,-10.848c11.18,-18.418 32.104,-23.149 50.04,-24.767c7.582,-0.684 7.473,-1.29 24.511,0.244c18.467,1.663 26.062,10.92 28.124,15.107c6.253,12.698 -17.762,23.201 -27.593,19.536c-7.352,-2.741 -7.663,-11.633 -5.131,-11.997c2.155,-0.31 -1.946,7.855 8.347,9.581c3.418,0.572 8.804,-1.112 11.273,-1.859c7.172,-2.172 13.575,-8.946 8.301,-14.706c-7.895,-8.623 -25.428,-10.833 -38.339,-10.861c-11.902,-0.026 -44.902,1.8 -54.507,24.223c-9.613,22.44 10.052,33.938 22.06,45.545c5.659,5.47 12.009,12.614 14.913,20.428c5.171,13.914 0.461,32.169 -10.925,44.496c-14.124,15.289 -33.203,10.191 -49.076,9.167c-9.434,-0.608 -27.005,-6.516 -36.814,-4.142c-17.675,4.277 -29.144,23.902 -33.328,43.21c-1.818,8.394 0.202,16.528 2.929,23.724c8.354,22.044 27.299,35.501 43.784,49.966c24.432,21.439 54.815,48.483 52.249,87.881c-0.792,12.146 -5.619,26.959 -10.857,38.18c-2.95,6.322 -6.615,12.391 -10.61,18.184c-11.944,17.315 -23.994,32.769 -41.972,42.984c-44.982,25.557 -90.997,3.229 -114.299,-31.911c-11.704,-17.648 -19.025,-40.153 -38.13,-50.935c-20.325,-11.471 -48.482,-12.47 -71.87,-13.552c-14.767,-0.683 -29.925,7.03 -44.569,5.001" style="fill:url(#_Linear6);"/></g><g id="Second-Legs"><path id="Left2" d="M587.533,518.237c7.767,-5.53 6.563,-17.41 5.233,-26.157c-2.432,-15.981 -13.379,-45.037 -23.912,-59.346c-3.777,-5.13 -15.002,-16.254 -24.3,-10.521c-13.136,8.098 -20.109,28.441 -28.377,40.318c-6.886,9.893 -18.113,25.722 -27.222,34.058c-18.617,17.036 -52.204,23.035 -62.163,47.209c-9.743,23.649 -1.846,53.185 -13.477,75.737c-12.457,24.153 -40.528,39.622 -74.439,20.996c-20.487,-11.253 -39.494,-29.784 -42.859,-50.369c-1.708,-10.443 -1.305,-29.291 1.583,-38.805c13.02,-42.889 48.934,-92.395 8.117,-131.868c-8.235,-7.964 -15.221,-11.208 -24.353,-17.347c-18.79,-12.633 -42.239,-21.052 -61.827,-15.197c-8.1,2.421 -15.288,7.219 -21.679,11.527c-12.204,8.226 -32.547,31.166 -53.597,14.141c-9.453,-7.644 -12.057,-19.02 -11.042,-28.272c2.035,-18.56 18.692,-37.031 10.075,-57.529c-1.56,-3.712 -3.946,-7.313 -6.651,-10.656c-2.628,-3.248 -5.692,-6.352 -9.183,-8.916c-18.991,-13.949 -35.387,-11.051 -53.652,-6.463c-7.721,1.94 -18.986,7.304 -28.79,4.069c-19.201,-6.335 -13.679,-33.462 -12.42,-44.172c0.344,-2.922 1.665,-5.665 1.165,-8.729c-0.263,-1.615 -1.415,2.66 -1.922,4.085c-2.759,7.753 -4.738,13.667 -4.657,22.369c0.038,4.073 0.444,8.247 1.472,12.407c3.059,12.374 14.604,21.214 28.208,19.802c18.306,-1.899 48.443,-15.655 67.643,2.701c19.213,18.369 4.986,36.213 -1.699,51.537c-3.149,7.222 -6.244,16.296 -5.674,24.836c1.017,15.206 13.603,31.216 30.135,39.213c20.505,9.919 36.955,-1.547 52.046,-7.978c8.969,-3.822 23.589,-15.551 34.228,-16.623c19.171,-1.931 38.973,13.084 51.503,30.29c5.447,7.481 7.024,16.027 7.498,23.91c1.452,24.147 -11.215,43.636 -21.033,63.254c-14.551,29.076 -32.479,65.605 -12.755,102.763c6.081,11.455 17.279,24.101 27.308,33.139c5.649,5.091 11.889,9.695 18.331,13.917c19.256,12.622 37.804,23.411 59.866,27.108c55.198,9.25 90.489,-28.086 97.949,-70.003c3.746,-21.052 1.082,-45.29 15.074,-62.251c14.885,-18.044 42.012,-28.664 64.435,-37.728c14.156,-5.724 32.364,-3.475 45.814,-10.456" style="fill:url(#_Linear7);"/><clipPath id="_clip8"><path d="M587.533,518.237c7.767,-5.53 6.563,-17.41 5.233,-26.157c-2.432,-15.981 -13.379,-45.037 -23.912,-59.346c-3.777,-5.13 -15.002,-16.254 -24.3,-10.521c-13.136,8.098 -20.109,28.441 -28.377,40.318c-6.886,9.893 -18.113,25.722 -27.222,34.058c-18.617,17.036 -52.204,23.035 -62.163,47.209c-9.743,23.649 -1.846,53.185 -13.477,75.737c-12.457,24.153 -40.528,39.622 -74.439,20.996c-20.487,-11.253 -39.494,-29.784 -42.859,-50.369c-1.708,-10.443 -1.305,-29.291 1.583,-38.805c13.02,-42.889 48.934,-92.395 8.117,-131.868c-8.235,-7.964 -15.221,-11.208 -24.353,-17.347c-18.79,-12.633 -42.239,-21.052 -61.827,-15.197c-8.1,2.421 -15.288,7.219 -21.679,11.527c-12.204,8.226 -32.547,31.166 -53.597,14.141c-9.453,-7.644 -12.057,-19.02 -11.042,-28.272c2.035,-18.56 18.692,-37.031 10.075,-57.529c-1.56,-3.712 -3.946,-7.313 -6.651,-10.656c-2.628,-3.248 -5.692,-6.352 -9.183,-8.916c-18.991,-13.949 -35.387,-11.051 -53.652,-6.463c-7.721,1.94 -18.986,7.304 -28.79,4.069c-19.201,-6.335 -13.679,-33.462 -12.42,-44.172c0.344,-2.922 1.665,-5.665 1.165,-8.729c-0.263,-1.615 -1.415,2.66 -1.922,4.085c-2.759,7.753 -4.738,13.667 -4.657,22.369c0.038,4.073 0.444,8.247 1.472,12.407c3.059,12.374 14.604,21.214 28.208,19.802c18.306,-1.899 48.443,-15.655 67.643,2.701c19.213,18.369 4.986,36.213 -1.699,51.537c-3.149,7.222 -6.244,16.296 -5.674,24.836c1.017,15.206 13.603,31.216 30.135,39.213c20.505,9.919 36.955,-1.547 52.046,-7.978c8.969,-3.822 23.589,-15.551 34.228,-16.623c19.171,-1.931 38.973,13.084 51.503,30.29c5.447,7.481 7.024,16.027 7.498,23.91c1.452,24.147 -11.215,43.636 -21.033,63.254c-14.551,29.076 -32.479,65.605 -12.755,102.763c6.081,11.455 17.279,24.101 27.308,33.139c5.649,5.091 11.889,9.695 18.331,13.917c19.256,12.622 37.804,23.411 59.866,27.108c55.198,9.25 90.489,-28.086 97.949,-70.003c3.746,-21.052 1.082,-45.29 15.074,-62.251c14.885,-18.044 42.012,-28.664 64.435,-37.728c14.156,-5.724 32.364,-3.475 45.814,-10.456"/></clipPath><g clip-path="url(#_clip8)"><g id="Shadows2"><path d="M570.25,429.591c-3.588,1.868 -17.141,5.163 -20.763,14.777c-3.144,8.341 -8.465,26.178 -11.105,39.104c-2.938,14.382 -0.485,30.483 -20.389,55.186c-2.406,2.986 5.983,1.812 14.751,-1.511c6.819,-2.585 13.867,-6.469 16.244,-10.707c7.765,-13.845 11.923,-55.31 15.594,-70.857c0.832,-3.526 2.654,-7.596 4.191,-11.421c0.784,-1.953 1.495,-3.843 1.961,-5.564c0.581,-2.144 0.783,-4.025 0.278,-5.442c-1.703,-4.781 0.316,-4.127 -0.762,-3.565Z" style="fill:#4b0000;"/><path d="M380.027,647.328c-2.86,-6.089 -17.617,-5.481 -20.169,0.744c-3.444,8.4 -4.561,40.996 -0.493,49.656c3.544,7.545 21.739,10.018 24.902,2.305c3.443,-8.4 -0.171,-44.045 -4.24,-52.705Z" style="fill:#640000;stroke:#640000;stroke-width:1px;"/><path d="M295.538,586.509c-5.263,12.044 -24.367,42.414 -31.346,46.761c-6.566,4.09 -13.629,-13.59 -10.531,-20.679c5.262,-12.043 35.126,-47.235 42.106,-51.582c6.98,-4.347 3.175,17.711 -0.229,25.5Z" style="fill:#640000;stroke:#640000;stroke-width:1px;"/></g></g><path id="Right2" d="M692.677,518.237c-7.768,-5.53 -6.563,-17.41 -5.233,-26.157c2.432,-15.981 13.406,-45.28 23.939,-59.589c3.777,-5.13 14.383,-15.748 23.681,-10.015c13.136,8.099 20.701,28.178 28.969,40.055c6.886,9.893 18.113,25.722 27.222,34.058c18.617,17.036 52.204,23.035 62.163,47.209c9.743,23.649 1.846,53.185 13.477,75.737c12.457,24.153 40.528,39.622 74.439,20.996c20.487,-11.253 39.494,-29.784 42.859,-50.369c1.708,-10.443 1.305,-29.291 -1.583,-38.805c-13.02,-42.889 -48.934,-92.395 -8.117,-131.868c8.235,-7.964 15.221,-11.208 24.353,-17.347c18.79,-12.633 42.239,-21.052 61.827,-15.197c8.1,2.421 15.288,7.219 21.679,11.527c12.204,8.226 32.547,31.166 53.597,14.141c9.452,-7.644 12.057,-19.02 11.042,-28.272c-2.035,-18.56 -18.692,-37.031 -10.075,-57.529c1.56,-3.712 3.946,-7.313 6.651,-10.656c2.628,-3.248 5.692,-6.352 9.183,-8.916c18.991,-13.949 35.387,-11.051 53.652,-6.463c7.721,1.94 18.986,7.304 28.79,4.069c19.201,-6.335 13.679,-33.462 12.42,-44.172c-0.344,-2.922 -1.665,-5.665 -1.165,-8.729c0.263,-1.615 1.415,2.66 1.922,4.085c2.759,7.753 4.738,13.667 4.657,22.369c-0.039,4.073 -0.444,8.247 -1.472,12.407c-3.059,12.374 -14.604,21.214 -28.208,19.802c-18.306,-1.899 -48.443,-15.655 -67.643,2.701c-19.213,18.369 -4.986,36.213 1.698,51.537c3.15,7.222 6.245,16.296 5.675,24.836c-1.017,15.206 -13.603,31.216 -30.135,39.213c-20.505,9.919 -36.955,-1.547 -52.046,-7.978c-8.969,-3.822 -23.589,-15.551 -34.228,-16.623c-19.171,-1.931 -38.973,13.084 -51.503,30.29c-5.447,7.481 -7.024,16.027 -7.498,23.91c-1.452,24.147 11.215,43.636 21.033,63.254c14.551,29.076 32.479,65.605 12.755,102.763c-6.081,11.455 -17.279,24.101 -27.308,33.139c-5.65,5.091 -11.889,9.695 -18.331,13.917c-19.256,12.622 -37.804,23.411 -59.866,27.108c-55.198,9.25 -90.489,-28.086 -97.949,-70.003c-3.746,-21.052 -1.082,-45.29 -15.074,-62.251c-14.885,-18.044 -42.012,-28.664 -64.435,-37.728c-14.156,-5.724 -32.364,-3.475 -45.814,-10.456" style="fill:url(#_Linear9);"/></g><g id="Front-Legs"><path id="Left3" d="M628.61,509.629c9.342,-7.526 18.994,-51.984 11.611,-59.609c-11.184,-11.549 -19.705,-5.846 -34.218,-13.663c-5.204,-2.803 -33.748,-13.408 -38.932,-4.027c-7.323,13.251 -17.862,46.541 -19.655,60.892c-1.494,11.954 -4.053,31.177 -8.002,42.777c-8.071,23.709 -32.906,44.551 -30.967,70.585c1.896,25.471 20.589,48.006 20.493,73.376c-0.102,27.171 -16.516,53.86 -51.843,53.02c-21.342,-0.507 -44.504,-8.151 -55.792,-24.845c-5.727,-8.469 -13.229,-25.366 -14.83,-35.136c-7.222,-44.041 1.435,-104.532 -48.17,-120.661c-10.008,-3.254 -17.04,-2.901 -27.02,-4.124c-20.534,-2.515 -43.11,0.859 -56.615,15.104c-5.584,5.89 -9.44,13.466 -12.85,20.239c-6.512,12.935 -13.535,42.674 -37.733,37.311c-10.866,-2.409 -17.71,-11.29 -20.728,-19.962c-6.053,-17.396 -0.173,-41.471 -15.698,-55.66c-2.811,-2.57 -6.248,-4.66 -9.837,-6.373c-3.487,-1.666 -7.27,-3.001 -11.175,-3.661c-21.245,-3.589 -33.381,6.559 -46.336,19.069c-5.476,5.288 -12.414,15.25 -21.734,16.914c-18.254,3.258 -25.029,-23.344 -28.453,-33.421c-0.934,-2.75 -0.999,-5.792 -2.677,-8.277c-0.885,-1.31 -0.047,3.012 0.133,4.51c0.975,8.149 1.821,14.306 5.502,21.984c1.723,3.593 3.787,7.106 6.351,10.319c7.629,9.557 20.693,12.057 31.175,4.518c14.105,-10.145 32.912,-36.269 56.157,-28.87c23.262,7.405 19.098,29.8 20.025,46.476c0.437,7.858 1.688,17.334 5.7,24.641c7.143,13.012 24.033,21.389 40.805,20.837c20.803,-0.684 29.424,-18.452 39.032,-31.129c5.709,-7.534 12.733,-24.69 20.944,-30.557c14.795,-10.573 37.142,-6.414 54.484,3.049c7.539,4.114 12.371,10.963 16.031,17.732c11.211,20.737 9.001,43.87 9.162,65.801c0.238,32.503 0.824,73.175 32.307,97.001c9.705,7.345 24.069,13.381 35.982,16.758c6.712,1.903 13.7,3.1 20.695,3.866c20.91,2.29 40.482,3.282 59.967,-3.637c48.752,-17.312 61.957,-66.724 50.616,-107.335c-5.696,-20.395 -17.932,-40.653 -13.593,-62.157c4.616,-22.877 22.276,-44.83 36.754,-63.23c9.141,-11.618 24.889,-18.04 32.932,-30.445" style="fill:url(#_Linear10);"/><clipPath id="_clip11"><path d="M628.61,509.629c9.342,-7.526 18.994,-51.984 11.611,-59.609c-11.184,-11.549 -19.705,-5.846 -34.218,-13.663c-5.204,-2.803 -33.748,-13.408 -38.932,-4.027c-7.323,13.251 -17.862,46.541 -19.655,60.892c-1.494,11.954 -4.053,31.177 -8.002,42.777c-8.071,23.709 -32.906,44.551 -30.967,70.585c1.896,25.471 20.589,48.006 20.493,73.376c-0.102,27.171 -16.516,53.86 -51.843,53.02c-21.342,-0.507 -44.504,-8.151 -55.792,-24.845c-5.727,-8.469 -13.229,-25.366 -14.83,-35.136c-7.222,-44.041 1.435,-104.532 -48.17,-120.661c-10.008,-3.254 -17.04,-2.901 -27.02,-4.124c-20.534,-2.515 -43.11,0.859 -56.615,15.104c-5.584,5.89 -9.44,13.466 -12.85,20.239c-6.512,12.935 -13.535,42.674 -37.733,37.311c-10.866,-2.409 -17.71,-11.29 -20.728,-19.962c-6.053,-17.396 -0.173,-41.471 -15.698,-55.66c-2.811,-2.57 -6.248,-4.66 -9.837,-6.373c-3.487,-1.666 -7.27,-3.001 -11.175,-3.661c-21.245,-3.589 -33.381,6.559 -46.336,19.069c-5.476,5.288 -12.414,15.25 -21.734,16.914c-18.254,3.258 -25.029,-23.344 -28.453,-33.421c-0.934,-2.75 -0.999,-5.792 -2.677,-8.277c-0.885,-1.31 -0.047,3.012 0.133,4.51c0.975,8.149 1.821,14.306 5.502,21.984c1.723,3.593 3.787,7.106 6.351,10.319c7.629,9.557 20.693,12.057 31.175,4.518c14.105,-10.145 32.912,-36.269 56.157,-28.87c23.262,7.405 19.098,29.8 20.025,46.476c0.437,7.858 1.688,17.334 5.7,24.641c7.143,13.012 24.033,21.389 40.805,20.837c20.803,-0.684 29.424,-18.452 39.032,-31.129c5.709,-7.534 12.733,-24.69 20.944,-30.557c14.795,-10.573 37.142,-6.414 54.484,3.049c7.539,4.114 12.371,10.963 16.031,17.732c11.211,20.737 9.001,43.87 9.162,65.801c0.238,32.503 0.824,73.175 32.307,97.001c9.705,7.345 24.069,13.381 35.982,16.758c6.712,1.903 13.7,3.1 20.695,3.866c20.91,2.29 40.482,3.282 59.967,-3.637c48.752,-17.312 61.957,-66.724 50.616,-107.335c-5.696,-20.395 -17.932,-40.653 -13.593,-62.157c4.616,-22.877 22.276,-44.83 36.754,-63.23c9.141,-11.618 24.889,-18.04 32.932,-30.445"/></clipPath><g clip-path="url(#_clip11)"><path d="M559.099,623.645c3.765,6.726 6.789,25.833 5.088,47.628c-1.812,23.201 -8.979,49.446 -26.309,67.042c-11.568,11.745 -27.582,14.722 -49.71,17.029c-31.573,3.293 -58.68,-10.189 -70.788,-20.423c-9.652,-8.158 -32.465,-28.405 -37.389,-41.248c-7.566,-19.736 -7.014,-40.477 -7.033,-41.629c-0.109,-6.589 -4.031,58.09 -4.031,58.09l25.833,52.414l50.542,15.594l48.67,4.249l61.773,-13.478l19.468,-35.567l9.36,-43.803l-10.109,-41.556l-15.365,-24.342Z" style="fill:url(#_Linear12);"/></g><path id="Right3" d="M651.39,509.629c-9.46,-8.436 -14.023,-45.743 -10.109,-56.234c12.496,-33.488 34.525,-26.795 64.175,-24.072c6.064,0.556 13.141,12.401 18.325,21.782c7.323,13.251 7.01,27.766 8.803,42.117c1.494,11.954 4.053,31.177 8.002,42.777c8.071,23.709 32.906,44.551 30.967,70.585c-1.896,25.471 -20.589,48.006 -20.493,73.376c0.102,27.171 16.516,53.86 51.843,53.02c21.342,-0.507 44.504,-8.151 55.792,-24.845c5.727,-8.469 13.229,-25.366 14.83,-35.136c7.222,-44.041 -1.435,-104.532 48.17,-120.661c10.008,-3.254 17.04,-2.901 27.02,-4.124c20.534,-2.515 43.11,0.859 56.615,15.104c5.584,5.89 9.44,13.466 12.85,20.239c6.512,12.935 13.535,42.674 37.733,37.311c10.866,-2.409 17.71,-11.29 20.728,-19.962c6.053,-17.396 0.173,-41.471 15.698,-55.66c2.811,-2.57 6.248,-4.66 9.837,-6.373c3.487,-1.666 7.27,-3.001 11.175,-3.661c21.245,-3.589 33.381,6.559 46.336,19.069c5.476,5.288 12.414,15.25 21.734,16.914c18.254,3.258 25.029,-23.344 28.453,-33.421c0.934,-2.75 0.999,-5.792 2.677,-8.277c0.885,-1.31 0.047,3.012 -0.133,4.51c-0.975,8.149 -1.821,14.306 -5.502,21.984c-1.723,3.593 -3.787,7.106 -6.351,10.319c-7.629,9.557 -20.693,12.057 -31.175,4.518c-14.105,-10.145 -32.912,-36.269 -56.157,-28.87c-23.262,7.405 -19.098,29.8 -20.025,46.476c-0.437,7.858 -1.688,17.334 -5.7,24.641c-7.143,13.012 -24.033,21.389 -40.805,20.837c-20.803,-0.684 -29.424,-18.452 -39.032,-31.129c-5.709,-7.534 -12.733,-24.69 -20.944,-30.557c-14.795,-10.573 -37.142,-6.414 -54.484,3.049c-7.539,4.114 -12.371,10.963 -16.031,17.732c-11.211,20.737 -9.001,43.87 -9.162,65.801c-0.238,32.503 -0.824,73.175 -32.307,97.001c-9.705,7.345 -24.069,13.381 -35.982,16.758c-6.712,1.903 -13.7,3.1 -20.695,3.866c-20.91,2.29 -40.482,3.282 -59.967,-3.637c-48.752,-17.312 -61.957,-66.724 -50.616,-107.335c5.696,-20.395 17.932,-40.653 13.593,-62.157c-4.616,-22.877 -22.276,-44.83 -36.754,-63.23c-9.141,-11.618 -24.889,-18.04 -32.932,-30.445" style="fill:url(#_Linear13);"/><clipPath id="_clip14"><path d="M651.39,509.629c-9.46,-8.436 -14.023,-45.743 -10.109,-56.234c12.496,-33.488 34.525,-26.795 64.175,-24.072c6.064,0.556 13.141,12.401 18.325,21.782c7.323,13.251 7.01,27.766 8.803,42.117c1.494,11.954 4.053,31.177 8.002,42.777c8.071,23.709 32.906,44.551 30.967,70.585c-1.896,25.471 -20.589,48.006 -20.493,73.376c0.102,27.171 16.516,53.86 51.843,53.02c21.342,-0.507 44.504,-8.151 55.792,-24.845c5.727,-8.469 13.229,-25.366 14.83,-35.136c7.222,-44.041 -1.435,-104.532 48.17,-120.661c10.008,-3.254 17.04,-2.901 27.02,-4.124c20.534,-2.515 43.11,0.859 56.615,15.104c5.584,5.89 9.44,13.466 12.85,20.239c6.512,12.935 13.535,42.674 37.733,37.311c10.866,-2.409 17.71,-11.29 20.728,-19.962c6.053,-17.396 0.173,-41.471 15.698,-55.66c2.811,-2.57 6.248,-4.66 9.837,-6.373c3.487,-1.666 7.27,-3.001 11.175,-3.661c21.245,-3.589 33.381,6.559 46.336,19.069c5.476,5.288 12.414,15.25 21.734,16.914c18.254,3.258 25.029,-23.344 28.453,-33.421c0.934,-2.75 0.999,-5.792 2.677,-8.277c0.885,-1.31 0.047,3.012 -0.133,4.51c-0.975,8.149 -1.821,14.306 -5.502,21.984c-1.723,3.593 -3.787,7.106 -6.351,10.319c-7.629,9.557 -20.693,12.057 -31.175,4.518c-14.105,-10.145 -32.912,-36.269 -56.157,-28.87c-23.262,7.405 -19.098,29.8 -20.025,46.476c-0.437,7.858 -1.688,17.334 -5.7,24.641c-7.143,13.012 -24.033,21.389 -40.805,20.837c-20.803,-0.684 -29.424,-18.452 -39.032,-31.129c-5.709,-7.534 -12.733,-24.69 -20.944,-30.557c-14.795,-10.573 -37.142,-6.414 -54.484,3.049c-7.539,4.114 -12.371,10.963 -16.031,17.732c-11.211,20.737 -9.001,43.87 -9.162,65.801c-0.238,32.503 -0.824,73.175 -32.307,97.001c-9.705,7.345 -24.069,13.381 -35.982,16.758c-6.712,1.903 -13.7,3.1 -20.695,3.866c-20.91,2.29 -40.482,3.282 -59.967,-3.637c-48.752,-17.312 -61.957,-66.724 -50.616,-107.335c5.696,-20.395 17.932,-40.653 13.593,-62.157c-4.616,-22.877 -22.276,-44.83 -36.754,-63.23c-9.141,-11.618 -24.889,-18.04 -32.932,-30.445"/></clipPath><g clip-path="url(#_clip14)"><path d="M722.31,623.645c-3.765,6.726 -6.79,25.833 -5.088,47.628c1.812,23.201 8.979,49.446 26.309,67.042c11.568,11.745 27.582,14.722 49.709,17.029c31.574,3.293 58.681,-10.189 70.789,-20.423c9.652,-8.158 32.465,-28.405 37.389,-41.248c7.566,-19.736 7.014,-40.477 7.033,-41.629c0.109,-6.589 4.031,58.09 4.031,58.09l-25.833,52.414l-50.542,15.594l-48.67,4.249l-61.773,-13.478l-19.468,-35.567l-9.36,-43.803l10.109,-41.556l15.365,-24.342Z" style="fill:url(#_Linear15);"/></g></g><g id="Highlights"><path d="M885.262,605.875c0.421,-2.351 6.668,-13.608 12.636,-24.011c5.667,-9.88 17.544,-21.925 30.735,-25.249c11.772,-2.966 40.621,-7.424 36.892,-5.209c-1.901,1.13 -17.597,5.779 -33.277,9.083c-9.255,1.951 -19.685,10.923 -23.487,16.539c-4.984,7.363 -9.041,12.835 -13.388,18.941c-7.371,10.353 -10.531,12.257 -10.111,9.906Z" style="fill:#ff5151;"/><path d="M885.262,605.875c-1.06,0.972 1.82,-8.754 3.339,-12.943c1.601,-4.416 3.492,-9.424 6.269,-13.557c3.456,-5.143 9.065,-13.121 14.466,-17.302c5.153,-3.989 11.954,-6.128 17.937,-7.779c5.812,-1.603 11.956,-1.594 17.962,-2.123c6.397,-0.564 20.622,-1.711 20.422,-1.259c-0.2,0.453 -14.471,2.376 -21.623,3.972c-7.811,1.744 -18.517,3.361 -25.238,6.488c-5.878,2.736 -11.284,7.838 -15.086,12.278c-4.15,4.846 -6.274,9.139 -8.747,13.45c-3.078,5.369 -8.64,17.803 -9.701,18.775Z" style="fill:#fff;"/><path d="M684.391,447.801c0.492,-1.086 19.309,-5.637 24.797,-4.059c5.056,1.455 6.446,8.886 8.132,13.529c1.696,4.67 3.042,9.475 4.118,14.326c1.149,5.188 1.978,11.179 2.78,16.797c0.841,5.885 2.874,18.092 2.261,18.514c-1.78,1.227 -3.771,-11.389 -4.707,-16.638c-2.104,-11.799 -2.912,-14.967 -4.329,-21.417c-0.9,-4.098 -2.893,-18.071 -8.108,-20.851c-2.439,-1.301 -3.993,-1.34 -6.827,-1.699c-8.896,-1.128 -18.878,3.178 -18.117,1.498Z" style="fill:#fff;"/><path d="M755.704,578.83c0.774,-0.842 8.722,12.735 10.466,17.493c1.269,3.459 0.938,7.491 0,11.054c-1.227,4.664 -6.593,17.93 -7.367,16.929c-0.773,-1.001 3.244,-15.355 2.727,-22.934c-0.516,-7.579 -6.599,-21.701 -5.826,-22.542Z" style="fill:#fff;"/><path d="M668.764,444.14c-1.088,-13.866 31.56,-14.923 41.063,-7.402c9.503,7.521 12.913,29.761 15.955,52.529c1.86,13.919 3.856,30.424 6.82,41.572c2.363,8.887 7.031,17.003 10.963,25.317c5.523,11.679 19.913,31.541 22.175,44.757c2.002,11.693 -6.285,26.225 -8.602,34.536c-1.452,5.207 -3.752,10.147 -5.301,15.326c-2.105,7.039 -6.953,17.621 -7.329,26.91c-0.379,9.338 1.788,20.835 5.058,29.119c3.087,7.818 8.473,14.793 14.564,20.585c8.103,7.705 27.646,13.816 42.556,11.49c13.438,-2.097 28.501,-6.254 39.045,-12.364c9.893,-5.734 18.786,-14.236 24.216,-24.299c5.706,-10.575 7.66,-25.887 10.017,-39.149c2.514,-14.149 4.192,-47.519 5.069,-45.747c0.877,1.773 1.339,41.623 0.193,56.381c-0.659,8.47 -2.034,21.089 -6.583,30.41c-4.577,9.378 -11.767,19.557 -20.878,25.859c-10.005,6.921 -25.796,13.332 -39.15,15.662c-13.354,2.331 -29.235,2.698 -40.974,-1.679c-11.738,-4.378 -24.17,-15.511 -29.459,-24.585c-7.224,-12.395 -8.407,-31.578 -8.407,-45.139c0,-12.395 5.543,-24.262 8.407,-36.224c2.842,-11.871 9.584,-24.725 8.779,-35.551c-0.801,-10.772 -8.01,-20.171 -13.611,-29.407c-6.534,-10.774 -18.323,-22.673 -25.593,-35.239c-12.432,-21.484 -47.672,-76.823 -48.993,-93.668Z" style="fill:url(#_Linear16);"/><path d="M988.489,556.278c0.228,0.763 7.812,4.694 12.576,10.136c3.075,3.513 6.915,8.209 8.934,11.962c1.47,2.733 3.324,5.451 4.541,7.667c0.975,1.776 5.781,7.94 6.326,8.443c0.545,0.503 -2.059,-3.604 -3.057,-5.423c-2.153,-3.924 -6.575,-13.327 -9.862,-18.125c-2.736,-3.994 -6.619,-8.218 -9.862,-10.662c-2.768,-2.085 -10.589,-7.318 -9.596,-3.998Z" style="fill:#fff;"/><path d="M1083.77,580.254c-0.145,-1.431 0.986,-21.973 6.863,-29.21c3.199,-3.939 7.62,-7.474 11.6,-9.855c3.735,-2.235 12.112,-4.834 12.283,-4.436c0.17,0.398 -7.739,4.204 -11.259,6.824c-3.668,2.729 -8.112,5.549 -10.747,9.553c-4.162,6.322 -8.727,27.246 -8.74,27.124Z" style="fill:#fff;"/><path d="M612.113,520.899c-2.57,2.985 5.286,-3.863 9.666,-10.744c6.134,-9.636 11.042,-27.302 11.929,-34.742c0.377,-3.166 0.46,-5.753 -0.222,-8.401c-1.653,-6.416 -5.172,-11.083 -4.51,-5.124c0.101,0.913 1.92,3.972 1.503,9.048c-0.299,3.631 -1.239,12.016 -3.762,20.482c-0.934,3.134 -4.606,10.841 -7.339,16.176c-3.998,7.802 -6.399,12.299 -7.265,13.305Z" style="fill:#fff;"/><path d="M625.292,460.423c0.094,1.114 1.714,6.979 1.346,11.034c-0.403,4.433 -0.84,11.752 -2.945,17.93c-3.421,10.035 -10.317,18.949 -12.085,21.58c-6.225,9.264 -18.233,19.179 -25.303,26.545c-5.674,5.912 -12.083,11.276 -17.113,17.651c-5.03,6.375 -9.984,14.015 -13.067,20.596c-2.78,5.934 -3.628,12.593 -5.431,18.893c-2.594,9.064 -0.551,14.815 2.369,17.462c0.535,0.485 0.694,-10.056 2.153,-14.835c1.806,-5.92 4.926,-14.219 8.689,-20.68c4.887,-8.392 13.331,-21.261 20.634,-29.67c9.766,-11.245 16.151,-17.017 22.504,-20.983c7.72,-4.818 15.946,-16.79 21.467,-30.428c5.56,-13.731 8.696,-28.001 2.973,-36.387c-3.195,-4.682 -7.033,-8.649 -6.191,1.292Z" style="fill:url(#_Linear17);"/><path d="M696.836,452.525c0.002,-0.487 5.498,-1.415 7.659,-0.104c2.161,1.31 5.413,7.494 5.306,7.969c-0.107,0.474 -3.98,-4.176 -5.948,-5.12c-5.048,-2.421 -7.027,-0.051 -7.017,-2.745Z" style="fill:#fff;"/><path d="M343.194,552.489c2.958,-0.181 19.332,2.976 25.733,6.018c5.304,2.519 9.104,7.571 12.676,12.231c3.572,4.661 6.597,10.134 8.757,15.734c2.36,6.123 4.183,14.057 5.406,21.001c1.2,6.812 1.192,13.783 1.934,20.66c0.786,7.287 2.742,15.32 2.782,23.063c0.048,9.124 3.792,26.842 5.507,30.668c1.169,2.609 -4.696,-3.716 -5.726,-6.383c-1.746,-4.524 -3.301,-13.812 -4.753,-20.762c-1.525,-7.297 -3.039,-15.329 -4.396,-23.023c-1.532,-8.679 -2.821,-21.28 -4.791,-29.05c-1.551,-6.114 -4.196,-11.934 -7.029,-17.571c-3.05,-6.07 -6.585,-14.602 -11.271,-18.848c-4.471,-4.052 -12.704,-4.342 -16.842,-6.632c-3.118,-1.725 -10.945,-6.924 -7.987,-7.106Z" style="fill:url(#_Linear18);"/><path d="M373.188,564.429c0,0 3.852,4.661 6.817,8.628c4.533,6.065 11.081,21.571 12.318,33.263c0.934,8.833 2.724,19.53 3.784,24.975c0.518,2.656 2.313,8.223 2.579,7.695c0.265,-0.527 -0.651,-7.239 -0.986,-10.857c-0.487,-5.253 -0.734,-13.848 -1.934,-20.66c-1.223,-6.944 -2.75,-14.486 -5.406,-21.001c-2.635,-6.461 -6.962,-13.629 -10.534,-18.089c-2.902,-3.623 -8.901,-8.713 -10.899,-8.669c-1.87,0.041 4.261,4.715 4.261,4.715Z" style="fill:#fff;"/></g><g id="Suction-Cups"><g id="Left4"><g><path d="M435.591,766.293c7.417,2.019 12.895,5.656 12.225,8.118c-0.67,2.462 -7.236,2.823 -14.653,0.804c-7.416,-2.018 -12.894,-5.656 -12.224,-8.118c0.67,-2.462 7.236,-2.822 14.652,-0.804Z" style="fill:#fff;stroke:#ff5151;stroke-width:1px;"/><path d="M408.986,749.382c5.521,5.347 8.563,11.177 6.787,13.01c-1.775,1.833 -7.699,-1.021 -13.22,-6.369c-5.521,-5.348 -8.562,-11.177 -6.787,-13.01c1.775,-1.833 7.699,1.021 13.22,6.369Z" style="fill:#fff;stroke:#ff5151;stroke-width:1px;"/><path d="M394.289,719.289c4.051,6.532 5.579,12.928 3.411,14.272c-2.169,1.345 -7.218,-2.867 -11.269,-9.399c-4.051,-6.532 -5.58,-12.928 -3.411,-14.272c2.168,-1.345 7.218,2.866 11.269,9.399Z" style="fill:#fff;stroke:#ff5151;stroke-width:1px;"/><path d="M384.427,726.683c4.051,6.533 6.634,12.274 5.764,12.813c-0.869,0.539 -7.094,-7.147 -8.915,-10.859c-3.385,-6.901 -3.519,-13.017 -2.65,-13.557c0.87,-0.539 1.75,5.071 5.801,11.603Z" style="fill:#fff;stroke:#ff5151;stroke-width:1px;"/><path d="M375.614,697.294c2.416,7.297 2.904,13.041 2.356,13.223c-0.548,0.181 -3.269,-8.587 -4.343,-12.565c-1.996,-7.396 -0.509,-13.149 0.039,-13.33c0.548,-0.182 -0.468,5.375 1.948,12.672Z" style="fill:#fff;stroke:#ff5151;stroke-width:1px;"/><ellipse cx="467.632" cy="775.215" rx="13.927" ry="3.927" style="fill:#fff;stroke:#ff5151;stroke-width:1px;"/><path d="M503.017,770.791c7.618,-1.025 14.037,-0.113 14.326,2.035c0.289,2.148 -5.661,4.723 -13.279,5.748c-7.618,1.025 -14.037,0.114 -14.326,-2.034c-0.289,-2.148 5.661,-4.724 13.279,-5.749Z" style="fill:#fff;stroke:#ff5151;stroke-width:1px;"/><path d="M538.133,759.126c6.776,-3.628 13.108,-5.023 14.131,-3.112c1.023,1.91 -3.648,6.407 -10.424,10.036c-6.776,3.628 -13.108,5.023 -14.131,3.112c-1.023,-1.91 3.648,-6.407 10.424,-10.036Z" style="fill:#fff;stroke:#ff5151;stroke-width:1px;"/><path d="M562.311,730.096c3.868,-6.642 8.529,-11.15 10.401,-10.059c1.873,1.09 0.253,7.368 -3.615,14.011c-3.868,6.642 -8.529,11.15 -10.402,10.059c-1.872,-1.091 -0.252,-7.369 3.616,-14.011Z" style="fill:#fff;stroke:#ff5151;stroke-width:1px;"/><path d="M576.071,699.965c1.146,-7.601 -2.19,-15.122 -0.047,-14.799c2.143,0.323 4.311,7.393 3.166,14.993c-1.146,7.601 -3.816,13.51 -5.959,13.187c-2.143,-0.323 1.695,-5.78 2.84,-13.381Z" style="fill:#fff;stroke:#ff5151;stroke-width:1px;"/><path d="M572.592,665.522c-1.879,-7.454 -5.865,-12.915 -3.764,-13.445c2.102,-0.529 4.131,5.31 6.195,12.714c0.924,3.314 2.41,13.438 0.309,13.968c-2.102,0.529 -0.861,-5.784 -2.74,-13.237Z" style="fill:#fff;stroke:#ff5151;stroke-width:1px;"/><path d="M441.774,752.702c7.599,1.158 13.365,4.75 12.867,8.016c-0.497,3.266 -7.071,4.978 -14.67,3.82c-7.599,-1.157 -13.364,-4.749 -12.866,-8.015c0.497,-3.266 7.071,-4.978 14.669,-3.821Z" style="fill:#fff;stroke:#ff5151;stroke-width:1px;"/><path d="M417.688,738.519c5.77,5.079 8.682,11.215 6.499,13.695c-2.183,2.48 -8.639,0.371 -14.409,-4.708c-5.77,-5.078 -8.683,-11.214 -6.5,-13.695c2.183,-2.48 8.64,-0.37 14.41,4.708Z" style="fill:#fff;stroke:#ff5151;stroke-width:1px;"/><path d="M472.232,756.817c7.686,0.109 13.888,2.879 13.841,6.183c-0.046,3.303 -6.324,5.897 -14.01,5.788c-7.686,-0.108 -13.888,-2.879 -13.841,-6.182c0.047,-3.304 6.325,-5.898 14.01,-5.789Z" style="fill:#fff;stroke:#ff5151;stroke-width:1px;"/><path d="M505.647,755.836c7.632,-0.917 14.148,1.001 14.542,4.282c0.394,3.28 -5.482,6.688 -13.114,7.605c-7.631,0.917 -14.147,-1.002 -14.541,-4.282c-0.395,-3.281 5.481,-6.688 13.113,-7.605Z" style="fill:#fff;stroke:#ff5151;stroke-width:1px;"/><path d="M535.358,744.197c6.827,-3.532 13.602,-4.017 15.12,-1.083c1.518,2.935 -2.792,8.184 -9.619,11.717c-6.827,3.532 -13.602,4.017 -15.12,1.082c-1.518,-2.934 2.792,-8.184 9.619,-11.716Z" style="fill:#fff;stroke:#ff5151;stroke-width:1px;"/><path d="M551.752,720.737c3.962,-6.587 9.477,-10.552 12.308,-8.85c2.831,1.703 1.914,8.433 -2.048,15.02c-3.962,6.587 -9.477,10.553 -12.308,8.85c-2.831,-1.703 -1.913,-8.433 2.048,-15.02Z" style="fill:#fff;stroke:#ff5151;stroke-width:1px;"/><path d="M563.39,694.513c1.222,-7.589 4.156,-13.437 6.548,-13.052c2.392,0.385 3.343,6.859 2.121,14.448c-1.222,7.589 -4.156,13.437 -6.548,13.052c-2.392,-0.385 -3.342,-6.859 -2.121,-14.448Z" style="fill:#fff;stroke:#ff5151;stroke-width:1px;"/></g><g><path d="M440.865,756.484c4.999,0.786 8.832,2.861 8.554,4.629c-0.278,1.769 -4.563,2.567 -9.562,1.781c-4.999,-0.786 -8.832,-2.861 -8.553,-4.63c0.278,-1.768 4.562,-2.566 9.561,-1.78Z" style="fill:#ff5151;"/><path d="M434.191,770.349c4.88,1.34 8.54,3.525 8.169,4.878c-0.371,1.352 -4.634,1.363 -9.514,0.023c-4.88,-1.339 -8.541,-3.525 -8.17,-4.877c0.371,-1.353 4.635,-1.363 9.515,-0.024Z" style="fill:#ff5151;"/><path d="M414.435,741.61c3.806,3.334 6.094,6.958 5.105,8.087c-0.989,1.129 -4.883,-0.662 -8.689,-3.996c-3.807,-3.335 -6.094,-6.959 -5.105,-8.088c0.989,-1.129 4.882,0.662 8.689,3.997Z" style="fill:#ff5151;"/><path d="M405.986,753.876c3.807,3.335 6.35,6.667 5.677,7.436c-0.674,0.769 -4.311,-1.314 -8.118,-4.649c-3.806,-3.334 -6.35,-6.666 -5.676,-7.435c0.674,-0.769 4.311,1.314 8.117,4.648Z" style="fill:#ff5151;"/><path d="M390.955,721.233c2.94,4.118 4.691,7.916 3.908,8.475c-0.783,0.559 -3.806,-2.331 -6.746,-6.45c-2.94,-4.118 -4.691,-7.916 -3.908,-8.475c0.783,-0.559 3.806,2.331 6.746,6.45Z" style="fill:#ff5151;"/><ellipse cx="472.132" cy="764.039" rx="9.169" ry="3.244" style="fill:#ff5151;"/><path d="M506.174,759.835c5.031,-0.54 9.272,0.466 9.463,2.247c0.191,1.78 -3.739,3.664 -8.771,4.204c-5.031,0.54 -9.271,-0.467 -9.463,-2.247c-0.191,-1.78 3.739,-3.664 8.771,-4.204Z" style="fill:#ff5151;"/><path d="M537.744,747.188c4.442,-2.425 8.745,-3.117 9.603,-1.545c0.858,1.571 -2.052,4.816 -6.494,7.24c-4.443,2.424 -8.745,3.116 -9.603,1.545c-0.858,-1.572 2.052,-4.816 6.494,-7.24Z" style="fill:#ff5151;"/><path d="M555.574,722.623c2.65,-4.311 6.04,-7.05 7.566,-6.113c1.525,0.938 0.612,5.199 -2.038,9.511c-2.65,4.311 -6.04,7.05 -7.565,6.112c-1.526,-0.938 -0.613,-5.199 2.037,-9.51Z" style="fill:#ff5151;"/><path d="M567.598,694.666c0.794,-4.998 2.456,-8.894 3.709,-8.695c1.254,0.199 1.628,4.419 0.835,9.417c-0.794,4.997 -2.456,8.894 -3.71,8.695c-1.253,-0.199 -1.627,-4.419 -0.834,-9.417Z" style="fill:#ff5151;"/><ellipse cx="467.306" cy="777.383" rx="9.169" ry="2.133" style="fill:#ff5151;"/><path d="M503.573,774.472c4.995,-0.808 9.204,-0.521 9.392,0.641c0.187,1.162 -3.716,2.761 -8.711,3.57c-4.996,0.808 -9.204,0.521 -9.392,-0.641c-0.188,-1.162 3.715,-2.762 8.711,-3.57Z" style="fill:#ff5151;"/><path d="M540.66,761.759c4.421,-2.462 8.476,-3.626 9.049,-2.598c0.572,1.028 -2.552,3.862 -6.973,6.325c-4.421,2.462 -8.475,3.626 -9.048,2.598c-0.573,-1.028 2.551,-3.862 6.972,-6.325Z" style="fill:#ff5151;"/><path d="M566.061,732.089c2.505,-4.396 5.228,-7.573 6.077,-7.09c0.849,0.484 -0.497,4.446 -3.002,8.843c-2.506,4.397 -5.229,7.573 -6.078,7.09c-0.848,-0.484 0.497,-4.446 3.003,-8.843Z" style="fill:#ff5151;"/></g></g><g id="Right4"><g><path d="M844.851,766.293c-7.417,2.019 -12.895,5.656 -12.225,8.118c0.67,2.462 7.236,2.823 14.653,0.804c7.417,-2.018 12.894,-5.656 12.224,-8.118c-0.67,-2.462 -7.235,-2.822 -14.652,-0.804Z" style="fill:#fff;stroke:#ff5151;stroke-width:1px;"/><path d="M871.456,749.382c-5.521,5.347 -8.562,11.177 -6.787,13.01c1.775,1.833 7.699,-1.021 13.22,-6.369c5.521,-5.348 8.563,-11.177 6.787,-13.01c-1.775,-1.833 -7.699,1.021 -13.22,6.369Z" style="fill:#fff;stroke:#ff5151;stroke-width:1px;"/><path d="M886.154,719.289c-4.052,6.532 -5.58,12.928 -3.411,14.272c2.168,1.345 7.217,-2.867 11.268,-9.399c4.052,-6.532 5.58,-12.928 3.412,-14.272c-2.169,-1.345 -7.218,2.866 -11.269,9.399Z" style="fill:#fff;stroke:#ff5151;stroke-width:1px;"/><path d="M896.016,726.683c-4.051,6.533 -6.635,12.274 -5.765,12.813c0.869,0.539 7.094,-7.147 8.915,-10.859c3.386,-6.901 3.519,-13.017 2.65,-13.557c-0.87,-0.539 -1.749,5.071 -5.8,11.603Z" style="fill:#fff;stroke:#ff5151;stroke-width:1px;"/><path d="M904.828,697.294c-2.415,7.297 -2.904,13.041 -2.356,13.223c0.548,0.181 3.269,-8.587 4.343,-12.565c1.996,-7.396 0.51,-13.149 -0.039,-13.33c-0.548,-0.182 0.468,5.375 -1.948,12.672Z" style="fill:#fff;stroke:#ff5151;stroke-width:1px;"/><ellipse cx="812.81" cy="775.215" rx="13.927" ry="3.927" style="fill:#fff;stroke:#ff5151;stroke-width:1px;"/><path d="M777.425,770.791c-7.618,-1.025 -14.037,-0.113 -14.326,2.035c-0.289,2.148 5.661,4.723 13.279,5.748c7.618,1.025 14.037,0.114 14.326,-2.034c0.289,-2.148 -5.661,-4.724 -13.279,-5.749Z" style="fill:#fff;stroke:#ff5151;stroke-width:1px;"/><path d="M742.309,759.126c-6.776,-3.628 -13.108,-5.023 -14.131,-3.112c-1.023,1.91 3.648,6.407 10.424,10.036c6.777,3.628 13.109,5.023 14.132,3.112c1.023,-1.91 -3.648,-6.407 -10.425,-10.036Z" style="fill:#fff;stroke:#ff5151;stroke-width:1px;"/><path d="M718.131,730.096c-3.868,-6.642 -8.528,-11.15 -10.401,-10.059c-1.873,1.09 -0.253,7.368 3.615,14.011c3.868,6.642 8.529,11.15 10.402,10.059c1.873,-1.091 0.253,-7.369 -3.616,-14.011Z" style="fill:#fff;stroke:#ff5151;stroke-width:1px;"/><path d="M704.371,699.965c-1.146,-7.601 2.19,-15.122 0.047,-14.799c-2.143,0.323 -4.311,7.393 -3.165,14.993c1.145,7.601 3.815,13.51 5.958,13.187c2.143,-0.323 -1.694,-5.78 -2.84,-13.381Z" style="fill:#fff;stroke:#ff5151;stroke-width:1px;"/><path d="M707.85,665.522c1.879,-7.454 5.865,-12.915 3.764,-13.445c-2.101,-0.529 -4.131,5.31 -6.195,12.714c-0.924,3.314 -2.41,13.438 -0.309,13.968c2.102,0.529 0.861,-5.784 2.74,-13.237Z" style="fill:#fff;stroke:#ff5151;stroke-width:1px;"/><path d="M838.668,752.702c-7.599,1.158 -13.364,4.75 -12.867,8.016c0.498,3.266 7.071,4.978 14.67,3.82c7.599,-1.157 13.364,-4.749 12.867,-8.015c-0.498,-3.266 -7.071,-4.978 -14.67,-3.821Z" style="fill:#fff;stroke:#ff5151;stroke-width:1px;"/><path d="M862.754,738.519c-5.77,5.079 -8.682,11.215 -6.499,13.695c2.183,2.48 8.639,0.371 14.409,-4.708c5.77,-5.078 8.683,-11.214 6.5,-13.695c-2.183,-2.48 -8.64,-0.37 -14.41,4.708Z" style="fill:#fff;stroke:#ff5151;stroke-width:1px;"/><path d="M808.21,756.817c-7.686,0.109 -13.888,2.879 -13.841,6.183c0.047,3.303 6.324,5.897 14.01,5.788c7.686,-0.108 13.888,-2.879 13.841,-6.182c-0.047,-3.304 -6.324,-5.898 -14.01,-5.789Z" style="fill:#fff;stroke:#ff5151;stroke-width:1px;"/><path d="M774.795,755.836c-7.631,-0.917 -14.147,1.001 -14.542,4.282c-0.394,3.28 5.482,6.688 13.114,7.605c7.632,0.917 14.147,-1.002 14.542,-4.282c0.394,-3.281 -5.482,-6.688 -13.114,-7.605Z" style="fill:#fff;stroke:#ff5151;stroke-width:1px;"/><path d="M745.084,744.197c-6.827,-3.532 -13.602,-4.017 -15.12,-1.083c-1.518,2.935 2.792,8.184 9.619,11.717c6.827,3.532 13.602,4.017 15.12,1.082c1.518,-2.934 -2.792,-8.184 -9.619,-11.716Z" style="fill:#fff;stroke:#ff5151;stroke-width:1px;"/><path d="M728.69,720.737c-3.962,-6.587 -9.477,-10.552 -12.308,-8.85c-2.831,1.703 -1.913,8.433 2.048,15.02c3.962,6.587 9.477,10.553 12.308,8.85c2.831,-1.703 1.914,-8.433 -2.048,-15.02Z" style="fill:#fff;stroke:#ff5151;stroke-width:1px;"/><path d="M717.052,694.513c-1.222,-7.589 -4.156,-13.437 -6.548,-13.052c-2.392,0.385 -3.343,6.859 -2.121,14.448c1.222,7.589 4.156,13.437 6.548,13.052c2.392,-0.385 3.343,-6.859 2.121,-14.448Z" style="fill:#fff;stroke:#ff5151;stroke-width:1px;"/></g><g><path d="M839.983,756.484c-4.999,0.786 -8.832,2.861 -8.554,4.629c0.278,1.769 4.563,2.567 9.562,1.781c4.999,-0.786 8.832,-2.861 8.554,-4.63c-0.279,-1.768 -4.563,-2.566 -9.562,-1.78Z" style="fill:#ff3030;"/><path d="M846.657,770.349c-4.88,1.34 -8.54,3.525 -8.169,4.878c0.371,1.352 4.634,1.363 9.515,0.023c4.88,-1.339 8.54,-3.525 8.169,-4.877c-0.371,-1.353 -4.635,-1.363 -9.515,-0.024Z" style="fill:#ff3030;"/><path d="M866.413,741.61c-3.806,3.334 -6.094,6.958 -5.105,8.087c0.989,1.129 4.883,-0.662 8.689,-3.996c3.807,-3.335 6.094,-6.959 5.105,-8.088c-0.989,-1.129 -4.882,0.662 -8.689,3.997Z" style="fill:#ff3030;"/><path d="M874.862,753.876c-3.807,3.335 -6.35,6.667 -5.677,7.436c0.674,0.769 4.311,-1.314 8.118,-4.649c3.806,-3.334 6.35,-6.666 5.676,-7.435c-0.673,-0.769 -4.311,1.314 -8.117,4.648Z" style="fill:#ff3030;"/><path d="M889.893,721.233c-2.94,4.118 -4.691,7.916 -3.908,8.475c0.783,0.559 3.806,-2.331 6.746,-6.45c2.94,-4.118 4.691,-7.916 3.908,-8.475c-0.783,-0.559 -3.806,2.331 -6.746,6.45Z" style="fill:#ff3030;"/><ellipse cx="808.716" cy="764.039" rx="9.169" ry="3.244" style="fill:#ff3030;"/><path d="M774.674,759.835c-5.031,-0.54 -9.272,0.466 -9.463,2.247c-0.191,1.78 3.739,3.664 8.771,4.204c5.031,0.54 9.272,-0.467 9.463,-2.247c0.191,-1.78 -3.739,-3.664 -8.771,-4.204Z" style="fill:#ff3030;"/><path d="M743.104,747.188c-4.442,-2.425 -8.745,-3.117 -9.603,-1.545c-0.857,1.571 2.053,4.816 6.495,7.24c4.442,2.424 8.744,3.116 9.602,1.545c0.858,-1.572 -2.052,-4.816 -6.494,-7.24Z" style="fill:#ff3030;"/><path d="M725.274,722.623c-2.65,-4.311 -6.04,-7.05 -7.565,-6.113c-1.526,0.938 -0.613,5.199 2.037,9.511c2.65,4.311 6.04,7.05 7.566,6.112c1.525,-0.938 0.612,-5.199 -2.038,-9.51Z" style="fill:#ff3030;"/><path d="M713.25,694.666c-0.794,-4.998 -2.456,-8.894 -3.709,-8.695c-1.254,0.199 -1.628,4.419 -0.834,9.417c0.793,4.997 2.455,8.894 3.709,8.695c1.253,-0.199 1.627,-4.419 0.834,-9.417Z" style="fill:#ff3030;"/><ellipse cx="813.542" cy="777.383" rx="9.169" ry="2.133" style="fill:#ff3030;"/><path d="M777.276,774.472c-4.996,-0.808 -9.204,-0.521 -9.392,0.641c-0.188,1.162 3.715,2.761 8.71,3.57c4.996,0.808 9.204,0.521 9.392,-0.641c0.188,-1.162 -3.715,-2.762 -8.71,-3.57Z" style="fill:#ff3030;"/><path d="M740.188,761.759c-4.421,-2.462 -8.476,-3.626 -9.048,-2.598c-0.573,1.028 2.551,3.862 6.972,6.325c4.421,2.462 8.476,3.626 9.048,2.598c0.573,-1.028 -2.551,-3.862 -6.972,-6.325Z" style="fill:#ff3030;"/><path d="M714.787,732.089c-2.505,-4.396 -5.228,-7.573 -6.077,-7.09c-0.848,0.484 0.497,4.446 3.002,8.843c2.506,4.397 5.229,7.573 6.078,7.09c0.848,-0.484 -0.497,-4.446 -3.003,-8.843Z" style="fill:#ff3030;"/></g></g></g></g><path id="Head" d="M545.874,293.227c3.075,0.55 5.583,0.613 7.66,0.409c1.669,-6.731 1.012,-14.052 -2.284,-20.628c-13.116,-26.204 -31.319,-62.526 -31.319,-62.526c-17.852,-35.62 -16.227,-78.126 4.291,-112.227c20.519,-34.1 56.978,-54.89 96.263,-54.89c12.974,0 26.056,0 39.03,0c39.285,0 75.744,20.79 96.263,54.89c20.518,34.101 22.143,76.607 4.291,112.227c0,0 -18.203,36.322 -31.332,62.52c-3.296,6.577 -3.954,13.9 -2.286,20.632c2.08,0.207 4.593,0.144 7.674,-0.407l10.1,-5.373c-0.004,-0.109 -0.007,-0.219 -0.007,-0.33c0,-4.504 3.593,-8.16 8.017,-8.16c1.817,0 3.494,0.616 4.839,1.655l5.408,-2.877c1.599,-0.85 3.562,-0.47 4.742,0.919c1.181,1.388 1.268,3.421 0.211,4.909l-22.959,32.331c0.206,0.204 0.411,0.41 0.615,0.617c12.657,12.884 19.767,30.357 19.767,48.577c0,0.001 0,0.001 0,0.002c0,18.22 -7.11,35.693 -19.767,48.577c-12.657,12.883 -29.824,20.088 -47.723,20.121c-17.794,0.033 -37.577,19.2 -57.362,19.2c-19.785,0 -39.572,-19.167 -57.374,-19.2c-17.899,-0.033 -35.066,-7.238 -47.723,-20.121c-12.657,-12.884 -19.767,-30.357 -19.767,-48.577c0,-0.001 0,-0.001 0,-0.002c0,-18.22 7.11,-35.693 19.767,-48.577c0.204,-0.207 0.409,-0.413 0.615,-0.617l-22.959,-32.331c-1.057,-1.488 -0.97,-3.521 0.211,-4.909c1.18,-1.389 3.143,-1.769 4.742,-0.919l5.408,2.877c1.345,-1.039 3.022,-1.655 4.839,-1.655c4.424,0 8.017,3.656 8.017,8.16c0,0.111 -0.003,0.221 -0.007,0.33l10.099,5.373Z" style="fill:url(#_Radial19);"/><clipPath id="_clip20"><path d="M545.874,293.227c3.075,0.55 5.583,0.613 7.66,0.409c1.669,-6.731 1.012,-14.052 -2.284,-20.628c-13.116,-26.204 -31.319,-62.526 -31.319,-62.526c-17.852,-35.62 -16.227,-78.126 4.291,-112.227c20.519,-34.1 56.978,-54.89 96.263,-54.89c12.974,0 26.056,0 39.03,0c39.285,0 75.744,20.79 96.263,54.89c20.518,34.101 22.143,76.607 4.291,112.227c0,0 -18.203,36.322 -31.332,62.52c-3.296,6.577 -3.954,13.9 -2.286,20.632c2.08,0.207 4.593,0.144 7.674,-0.407l10.1,-5.373c-0.004,-0.109 -0.007,-0.219 -0.007,-0.33c0,-4.504 3.593,-8.16 8.017,-8.16c1.817,0 3.494,0.616 4.839,1.655l5.408,-2.877c1.599,-0.85 3.562,-0.47 4.742,0.919c1.181,1.388 1.268,3.421 0.211,4.909l-22.959,32.331c0.206,0.204 0.411,0.41 0.615,0.617c12.657,12.884 19.767,30.357 19.767,48.577c0,0.001 0,0.001 0,0.002c0,18.22 -7.11,35.693 -19.767,48.577c-12.657,12.883 -29.824,20.088 -47.723,20.121c-17.794,0.033 -37.577,19.2 -57.362,19.2c-19.785,0 -39.572,-19.167 -57.374,-19.2c-17.899,-0.033 -35.066,-7.238 -47.723,-20.121c-12.657,-12.884 -19.767,-30.357 -19.767,-48.577c0,-0.001 0,-0.001 0,-0.002c0,-18.22 7.11,-35.693 19.767,-48.577c0.204,-0.207 0.409,-0.413 0.615,-0.617l-22.959,-32.331c-1.057,-1.488 -0.97,-3.521 0.211,-4.909c1.18,-1.389 3.143,-1.769 4.742,-0.919l5.408,2.877c1.345,-1.039 3.022,-1.655 4.839,-1.655c4.424,0 8.017,3.656 8.017,8.16c0,0.111 -0.003,0.221 -0.007,0.33l10.099,5.373Z"/></clipPath><g clip-path="url(#_clip20)"><g id="Wrinkles"><path d="M569.144,102.025c18.041,19.872 43.634,31.203 70.475,31.203c26.84,0 52.433,-11.331 70.475,-31.203c4.08,-4.495 8.11,-8.934 12.016,-13.236c7.225,-7.959 9.078,-19.429 4.727,-29.257c-4.352,-9.829 -14.09,-16.167 -24.839,-16.167c-37.476,0 -85.292,0 -123.073,0c-11.044,0 -21.05,6.512 -25.521,16.611c-4.471,10.099 -2.567,21.884 4.856,30.061c3.551,3.911 7.196,7.926 10.884,11.988Z" style="fill:url(#_Linear21);"/><path d="M572.695,181.756c17.133,18.87 41.436,29.631 66.924,29.631c25.487,0 49.791,-10.761 66.923,-29.631c0.187,-0.206 0.374,-0.412 0.561,-0.618c6.692,-7.372 8.409,-17.996 4.378,-27.1c-4.031,-9.104 -13.051,-14.975 -23.008,-14.975c-30.006,0 -66.749,0 -96.878,0c-10.102,0 -19.254,5.957 -23.344,15.194c-4.09,9.237 -2.348,20.017 4.442,27.497c0.001,0 0.002,0.001 0.002,0.002Z" style="fill:url(#_Linear22);"/><path d="M581.578,256.478c14.859,16.366 35.936,25.698 58.041,25.698c22.104,0 43.182,-9.332 58.04,-25.698c0.179,-0.197 0.358,-0.394 0.537,-0.591c4.902,-5.399 6.159,-13.182 3.206,-19.85c-2.952,-6.668 -9.559,-10.968 -16.852,-10.968c-26.956,0 -61.956,0 -89.068,0c-7.432,0 -14.165,4.382 -17.174,11.178c-3.009,6.795 -1.728,14.726 3.268,20.229c0.001,0 0.001,0.001 0.002,0.002Z" style="fill:url(#_Linear23);"/><path d="M590.118,330.52c14.249,15.694 34.461,24.644 55.659,24.644c21.198,0 41.411,-8.95 55.659,-24.644c0.178,-0.196 0.354,-0.39 0.531,-0.584c4.241,-4.672 5.329,-11.405 2.774,-17.175c-2.554,-5.769 -8.271,-9.49 -14.581,-9.49c-26.211,0 -61.588,0 -87.98,0c-6.448,0 -12.289,3.802 -14.899,9.697c-2.61,5.896 -1.499,12.776 2.835,17.55c0.001,0 0.001,0.001 0.002,0.002Z" style="fill:url(#_Linear24);"/><path d="M613.789,456.109c16.834,6.601 35.541,6.592 52.37,-0.023c53.789,-21.321 102.915,-47.545 149.858,-76.063c10.414,-6.323 15.344,-18.806 12.061,-30.539c-3.283,-11.732 -13.976,-19.844 -26.159,-19.844c-91.01,0 -229.313,0 -321.218,0c-12.531,0 -23.527,8.353 -26.888,20.425c-3.361,12.073 1.737,24.905 12.465,31.381c47.337,28.581 96.092,54.305 147.511,74.663Z" style="fill:url(#_Linear25);"/></g><g id="Shadow"><path d="M640,54.241c0,-7.513 -41.793,3.827 -58.494,11.256c-16.195,7.204 -32.564,17.924 -41.712,33.317c-9.91,16.672 -17.524,45.866 -17.746,66.717c-0.214,20.243 9.066,40.591 16.419,58.389c7.111,17.211 22.509,36.815 27.702,48.399c2.908,6.488 4.146,15.242 3.455,21.104c-0.626,5.314 -2.369,13.547 -7.602,14.069c-5.874,0.587 -26.041,-13.132 -27.644,-10.552c-1.604,2.581 13.186,18.179 18.024,26.034c4.154,6.747 6.461,14.616 11.002,21.099c5.676,8.105 17.642,20.612 23.055,27.529c3.459,4.42 8.432,8.716 9.427,13.976c0.995,5.261 -0.778,12.266 -3.456,17.587c-3.207,6.376 -20.094,21.811 -15.789,20.667c4.305,-1.144 38.113,-14.782 41.62,-27.528c2.008,-7.301 10.358,-15.848 -5.895,-43.08c-5.605,-9.39 -14.529,-17.575 -17.199,-28.342c-7.239,-29.195 -23.957,-111.111 -26.234,-146.829c-1.456,-22.845 1.723,-47.424 12.573,-67.477c23.344,-43.147 58.494,-48.821 58.494,-56.335Z" style="fill:#9e0000;"/><path d="M618.111,58.881c2.123,-3.181 -18.84,3.75 -27.6,7.564c-9.377,4.082 -20.267,9.621 -28.662,16.928c-8.551,7.444 -17.25,17.041 -22.646,27.734c-5.543,10.986 -9.023,26.053 -10.615,38.179c-1.501,11.43 -1.785,23.416 1.061,34.577c3.763,14.756 19.332,57.802 21.514,53.96c2.182,-3.842 -10.12,-38.987 -8.421,-77.011c0.535,-11.973 1.682,-24.466 6.723,-35.298c5.838,-12.546 16.866,-28.874 28.307,-39.98c11.441,-11.105 38.216,-23.471 40.339,-26.653Z" style="fill:#640000;"/><path d="M568.339,313.121c-2.79,4.696 -16.979,-5.749 -18.563,-4.323c-1.584,1.427 6.511,8.413 9.059,12.88c2.515,4.408 3.477,9.657 6.227,13.918c3.698,5.729 11.148,14.457 15.96,20.458c4.216,5.258 9.63,10.986 12.914,15.548c2.652,3.683 5.762,7.382 6.794,11.826c1.038,4.468 1.377,10.393 -0.566,14.983c-2.359,5.571 -14.767,18.633 -13.588,18.441c1.18,-0.192 16.513,-12.052 20.665,-19.594c4.151,-7.541 6.51,-18.548 4.246,-25.656c-2.265,-7.107 -12.757,-10.7 -17.834,-16.989c-5.074,-6.285 -10.531,-12.896 -12.631,-20.746c-2.878,-10.757 -2.523,-40.34 -4.637,-43.798c-2.113,-3.458 -1.913,12.726 -8.046,23.052Z" style="fill:#640000;"/></g><g id="Highlight"><path d="M653.79,51.772c1.871,-1.373 43.085,8.332 59.131,17.025c14.92,8.083 28.507,21.921 37.145,35.133c8.456,12.931 13.392,30.295 14.688,44.137c1.229,13.122 -2.419,26.8 -6.911,38.914c-4.492,12.113 -14.513,23.566 -20.042,33.767c-4.828,8.907 -9.676,19.462 -13.131,27.435c-2.884,6.654 -6.395,13.232 -7.602,20.401c-1.382,8.207 -2.522,23.278 -0.691,28.842c1.323,4.022 7.608,5.464 11.675,4.542c6.662,-1.51 28.635,-19.447 28.301,-13.604c-0.333,5.843 -20.206,26.891 -30.301,48.662c-3.549,7.653 -9.84,16.869 -14.788,23.083c-4.284,5.379 -16.394,19.63 -14.9,14.198c1.495,-5.432 16.433,-21.229 23.865,-46.791c2.123,-7.3 6.674,-16.488 -3.912,-22.488c-8.414,-4.769 -11.812,-15.669 -12.434,-24.983c-0.747,-11.2 3.587,-28.592 7.951,-42.213c5.308,-16.566 18.158,-41.48 23.894,-57.182c4.399,-12.045 9.902,-25.454 10.522,-37.034c0.592,-11.041 -3.808,-27.998 -6.801,-32.441c-5.084,-7.547 -3.236,-14.543 -41.881,-35.699c-28.748,-15.738 -54.576,-15.776 -43.778,-23.704Z" style="fill:#ff5151;"/><path d="M742.21,100.403c0.016,0.894 11.693,21.54 13.982,33.187c2.289,11.647 2.754,24.851 -0.248,36.695c-3.078,12.143 -8.022,20.575 -18.219,36.165c-5.631,8.609 -8.452,14.086 -16.045,31.382c-2.86,6.517 -7.204,15.858 -9.104,23.14c-1.738,6.666 -2.642,14.099 -2.292,20.558c0.338,6.235 3.685,20.297 4.392,18.194c0.706,-2.104 -2.859,-14.793 -0.154,-30.815c2.136,-12.654 11.815,-31.134 18.262,-43.982c5.822,-11.606 15.742,-24.002 20.417,-33.112c3.474,-6.767 6.093,-14.075 7.636,-21.548c1.575,-7.625 2.575,-16.15 1.812,-24.204c-0.775,-8.184 -3.056,-17.287 -6.463,-24.897c-3.406,-7.61 -14.124,-28.882 -13.976,-20.763Z" style="fill:#f89c9c;"/><path d="M659.085,66.159c1.938,6.339 52.073,24.548 66.6,63.983c15.384,41.762 -11.66,77.216 -9.683,82.185c1.978,4.97 20.192,-47.519 21.548,-52.369c1.083,-3.872 6.657,-15.745 -1.725,-41.234c-4.209,-12.798 -12.42,-20.082 -21.769,-26.618c-12.69,-8.872 -56.909,-32.286 -54.971,-25.947Z" style="fill:#fff;"/><path d="M710.743,306.371c0.737,-1.027 6.498,4.619 7.117,7.244c2.145,9.099 -7.795,29.809 -9.537,30.45c-1.29,0.474 4.578,-14.277 5.118,-24.291c0.396,-7.333 -3.434,-12.376 -2.698,-13.403Z" style="fill:#fff;"/></g></g><g id="Eyes"><g id="Left-Eye"><path d="M526.307,317.458c2.065,-2.273 5.15,-3.332 8.176,-2.807c3.026,0.524 5.574,2.559 6.754,5.394c9.259,22.377 20.759,37.609 33.416,49.137c4.736,4.33 7.24,10.581 6.804,16.983c-0.436,6.401 -3.765,12.255 -9.044,15.903c-5.132,3.552 -10.508,7.266 -15.487,10.706c-5.662,3.912 -12.704,5.277 -19.419,3.764c-6.714,-1.513 -12.49,-5.766 -15.927,-11.729c-17.619,-30.41 -20.654,-59.778 4.727,-87.351Z" style="fill:#3b0000;"/><path d="M535.503,338.753c11.177,21.687 19.017,22.18 26.662,33.356c10.855,15.866 -9.279,33.615 -22.978,33.715c-13.699,0.099 -25.647,-14.847 -26.663,-33.356c-1.017,-18.509 16.889,-45.53 22.979,-33.715Z" style="fill:#750000;"/><path d="M534.916,348.801c8.817,17.109 15.002,17.498 21.034,26.314c8.563,12.517 -7.321,26.52 -18.128,26.598c-10.807,0.079 -20.232,-11.712 -21.034,-26.314c-0.802,-14.601 13.324,-35.919 18.128,-26.598Z" style="fill:#fff;"/><path d="M534.727,367.569c4.572,0.073 8.434,5.373 8.62,11.827c0.186,6.455 -3.374,11.637 -7.946,11.564c-4.571,-0.073 -8.433,-5.373 -8.619,-11.828c-0.186,-6.455 3.374,-11.636 7.945,-11.563Z"/></g><g id="Right-Eye"><path d="M753.903,317.458c-2.065,-2.273 -5.15,-3.332 -8.176,-2.807c-3.026,0.524 -5.574,2.559 -6.754,5.394c-9.259,22.377 -20.759,37.609 -33.416,49.137c-4.736,4.33 -7.24,10.581 -6.804,16.983c0.436,6.401 3.765,12.255 9.044,15.903c5.132,3.552 10.508,7.266 15.487,10.706c5.662,3.912 12.704,5.277 19.419,3.764c6.714,-1.513 12.49,-5.766 15.927,-11.729c17.619,-30.41 20.654,-59.778 -4.727,-87.351Z" style="fill:#3b0000;"/><path d="M744.707,338.753c-11.177,21.687 -19.017,22.18 -26.662,33.356c-10.855,15.866 9.279,33.615 22.978,33.715c13.699,0.099 25.647,-14.847 26.663,-33.356c1.017,-18.509 -16.889,-45.53 -22.979,-33.715Z" style="fill:#750000;"/><path d="M745.294,348.801c-8.817,17.109 -15.002,17.498 -21.034,26.314c-8.564,12.517 7.321,26.52 18.128,26.598c10.807,0.079 20.232,-11.712 21.034,-26.314c0.802,-14.601 -13.324,-35.919 -18.128,-26.598Z" style="fill:#fff;"/><path d="M745.482,367.569c-4.571,0.073 -8.433,5.373 -8.619,11.827c-0.186,6.455 3.374,11.637 7.945,11.564c4.572,-0.073 8.434,-5.373 8.62,-11.828c0.186,-6.455 -3.374,-11.636 -7.946,-11.563Z"/></g></g><defs><linearGradient id="_Linear1" x1="0" y1="0" x2="1" y2="0" gradientUnits="userSpaceOnUse" gradientTransform="matrix(88.9156,393.622,-369.277,83.4165,335.065,36.9247)"><stop offset="0" style="stop-color:#000;stop-opacity:1"/><stop offset="0.16" style="stop-color:#190000;stop-opacity:1"/><stop offset="0.32" style="stop-color:#300;stop-opacity:1"/><stop offset="0.76" style="stop-color:#3f0000;stop-opacity:1"/><stop offset="1" style="stop-color:#2f0000;stop-opacity:1"/></linearGradient><linearGradient id="_Linear3" x1="0" y1="0" x2="1" y2="0" gradientUnits="userSpaceOnUse" gradientTransform="matrix(-88.9156,393.622,369.277,83.4165,945.145,36.9247)"><stop offset="0" style="stop-color:#650000;stop-opacity:1"/><stop offset="0.33" style="stop-color:#500;stop-opacity:1"/><stop offset="0.72" style="stop-color:#500000;stop-opacity:1"/><stop offset="1" style="stop-color:#2c0000;stop-opacity:1"/></linearGradient><linearGradient id="_Linear4" x1="0" y1="0" x2="1" y2="0" gradientUnits="userSpaceOnUse" gradientTransform="matrix(329.843,419.951,-263.075,206.628,116.492,89.8591)"><stop offset="0" style="stop-color:#000;stop-opacity:1"/><stop offset="0.34" style="stop-color:#3e0000;stop-opacity:1"/><stop offset="0.71" style="stop-color:#510000;stop-opacity:1"/><stop offset="0.85" style="stop-color:#490000;stop-opacity:1"/><stop offset="1" style="stop-color:#2f0000;stop-opacity:1"/></linearGradient><linearGradient id="_Linear6" x1="0" y1="0" x2="1" y2="0" gradientUnits="userSpaceOnUse" gradientTransform="matrix(-329.843,419.951,263.075,206.628,1163.51,89.8591)"><stop offset="0" style="stop-color:#9e0000;stop-opacity:1"/><stop offset="0.43" style="stop-color:#7f0000;stop-opacity:1"/><stop offset="0.74" style="stop-color:#710000;stop-opacity:1"/><stop offset="1" style="stop-color:#370000;stop-opacity:1"/></linearGradient><linearGradient id="_Linear7" x1="0" y1="0" x2="1" y2="0" gradientUnits="userSpaceOnUse" gradientTransform="matrix(532.012,307.157,-171.388,296.853,4.71401,301.406)"><stop offset="0" style="stop-color:#000;stop-opacity:1"/><stop offset="0.14" style="stop-color:#300;stop-opacity:1"/><stop offset="0.3" style="stop-color:#680000;stop-opacity:1"/><stop offset="0.71" style="stop-color:#800000;stop-opacity:1"/><stop offset="1" style="stop-color:#640000;stop-opacity:1"/></linearGradient><linearGradient id="_Linear9" x1="0" y1="0" x2="1" y2="0" gradientUnits="userSpaceOnUse" gradientTransform="matrix(-532.012,307.157,171.401,296.875,1275.49,301.395)"><stop offset="0" style="stop-color:#f00;stop-opacity:1"/><stop offset="0.13" style="stop-color:#e10000;stop-opacity:1"/><stop offset="0.27" style="stop-color:#c30000;stop-opacity:1"/><stop offset="0.64" style="stop-color:#b50000;stop-opacity:1"/><stop offset="1" style="stop-color:#640000;stop-opacity:1"/></linearGradient><linearGradient id="_Linear10" x1="0" y1="0" x2="1" y2="0" gradientUnits="userSpaceOnUse" gradientTransform="matrix(460.298,-136.376,136.376,460.298,105.233,592.544)"><stop offset="0" style="stop-color:#640000;stop-opacity:1"/><stop offset="0.72" style="stop-color:#db0000;stop-opacity:1"/><stop offset="1" style="stop-color:#670000;stop-opacity:1"/></linearGradient><linearGradient id="_Linear12" x1="0" y1="0" x2="1" y2="0" gradientUnits="userSpaceOnUse" gradientTransform="matrix(0.402818,-21.9029,21.9029,0.402818,476.347,777.738)"><stop offset="0" style="stop-color:#fff;stop-opacity:1"/><stop offset="1" style="stop-color:#ff5151;stop-opacity:1"/></linearGradient><linearGradient id="_Linear13" x1="0" y1="0" x2="1" y2="0" gradientUnits="userSpaceOnUse" gradientTransform="matrix(-419.347,-272.888,272.888,-419.347,1126.83,746.418)"><stop offset="0" style="stop-color:#fff;stop-opacity:1"/><stop offset="0.35" style="stop-color:#ff3434;stop-opacity:1"/><stop offset="0.79" style="stop-color:#f00;stop-opacity:1"/><stop offset="1" style="stop-color:#620000;stop-opacity:1"/></linearGradient><linearGradient id="_Linear15" x1="0" y1="0" x2="1" y2="0" gradientUnits="userSpaceOnUse" gradientTransform="matrix(-0.402818,-21.9029,-21.9029,0.402818,805.062,777.738)"><stop offset="0" style="stop-color:#fff;stop-opacity:1"/><stop offset="1" style="stop-color:#ff5151;stop-opacity:1"/></linearGradient><linearGradient id="_Linear16" x1="0" y1="0" x2="1" y2="0" gradientUnits="userSpaceOnUse" gradientTransform="matrix(213.535,0,0,292.918,689.603,610.788)"><stop offset="0" style="stop-color:#f89c9c;stop-opacity:0"/><stop offset="0.17" style="stop-color:#fbc9c9;stop-opacity:0.27451"/><stop offset="0.37" style="stop-color:#fef0f0;stop-opacity:0.515601"/><stop offset="1" style="stop-color:#fff;stop-opacity:0.608696"/></linearGradient><linearGradient id="_Linear17" x1="0" y1="0" x2="1" y2="0" gradientUnits="userSpaceOnUse" gradientTransform="matrix(173.456,0,0,289.758,441.53,624.742)"><stop offset="0" style="stop-color:#fff;stop-opacity:0"/><stop offset="0.61" style="stop-color:#fff;stop-opacity:0.102529"/><stop offset="0.81" style="stop-color:#fff;stop-opacity:0.34254"/><stop offset="1" style="stop-color:#fff;stop-opacity:0.594203"/></linearGradient><linearGradient id="_Linear18" x1="0" y1="0" x2="1" y2="0" gradientUnits="userSpaceOnUse" gradientTransform="matrix(63.1996,0,0,130.28,342.588,617.629)"><stop offset="0" style="stop-color:#000;stop-opacity:0"/><stop offset="0.62" style="stop-color:#9f3333;stop-opacity:0.623529"/><stop offset="1" style="stop-color:#fff;stop-opacity:0.254902"/></linearGradient><radialGradient id="_Radial19" cx="0" cy="0" r="1" gradientUnits="userSpaceOnUse" gradientTransform="matrix(132.398,0,0,195.415,640,238.78)"><stop offset="0" style="stop-color:#f00;stop-opacity:1"/><stop offset="0.57" style="stop-color:#d00;stop-opacity:1"/><stop offset="0.8" style="stop-color:#960000;stop-opacity:1"/><stop offset="1" style="stop-color:#530000;stop-opacity:1"/></radialGradient><linearGradient id="_Linear21" x1="0" y1="0" x2="1" y2="0" gradientUnits="userSpaceOnUse" gradientTransform="matrix(1.5564e-14,-139.985,254.179,8.5716e-15,762.689,152.397)"><stop offset="0" style="stop-color:#640000;stop-opacity:1"/><stop offset="1" style="stop-color:#f00;stop-opacity:0"/></linearGradient><linearGradient id="_Linear22" x1="0" y1="0" x2="1" y2="0" gradientUnits="userSpaceOnUse" gradientTransform="matrix(1.32938e-14,-119.567,217.105,7.32134e-15,744.738,232.191)"><stop offset="0" style="stop-color:#640000;stop-opacity:1"/><stop offset="1" style="stop-color:#f00;stop-opacity:0"/></linearGradient><linearGradient id="_Linear23" x1="0" y1="0" x2="1" y2="0" gradientUnits="userSpaceOnUse" gradientTransform="matrix(1.08879e-14,-97.9269,177.812,5.99629e-15,725.713,301.342)"><stop offset="0" style="stop-color:#640000;stop-opacity:1"/><stop offset="1" style="stop-color:#f00;stop-opacity:0"/></linearGradient><linearGradient id="_Linear24" x1="0" y1="0" x2="1" y2="0" gradientUnits="userSpaceOnUse" gradientTransform="matrix(1.01132e-14,-90.9592,165.16,5.56964e-15,725.746,374.117)"><stop offset="0" style="stop-color:#640000;stop-opacity:1"/><stop offset="1" style="stop-color:#f00;stop-opacity:0"/></linearGradient><linearGradient id="_Linear25" x1="0" y1="0" x2="1" y2="0" gradientUnits="userSpaceOnUse" gradientTransform="matrix(3.20036e-14,-139.985,522.658,8.5716e-15,893.065,438.672)"><stop offset="0" style="stop-color:#640000;stop-opacity:1"/><stop offset="1" style="stop-color:#f00;stop-opacity:0"/></linearGradient></defs></svg>